<svg xmlns="http://www.w3.org/2000/svg" width="23.109" height="13.482" viewBox="0 0 23.109 13.482"><path d="M22.781,10.406a.963.963,0,0,1,1.363,0l5.777,5.777a.963.963,0,0,1,0,1.363l-5.777,5.777a.964.964,0,1,1-1.363-1.363l5.1-5.1-5.1-5.1a.963.963,0,0,1,0-1.363Z" transform="translate(-7.095 -10.123)" fill="#dc4295" fill-rule="evenodd"/><path d="M4.5,17.838a.963.963,0,0,1,.963-.963H25.681a.963.963,0,1,1,0,1.926H5.463A.963.963,0,0,1,4.5,17.838Z" transform="translate(-4.5 -11.097)" fill="#dc4295" fill-rule="evenodd"/></svg>