<svg xmlns="http://www.w3.org/2000/svg" width="18.351" height="18.351" viewBox="0 0 18.351 18.351"><path d="M16.057,0H2.294A2.294,2.294,0,0,0,0,2.294V16.057a2.294,2.294,0,0,0,2.294,2.294H16.057a2.294,2.294,0,0,0,2.294-2.294V2.294A2.294,2.294,0,0,0,16.057,0ZM1.147,4.424a1.075,1.075,0,0,1,1.147-.983H16.057a1.075,1.075,0,0,1,1.147.983v11.8a1.075,1.075,0,0,1-1.147.983H2.294a1.075,1.075,0,0,1-1.147-.983Z" transform="translate(0)" fill="#dc4295" fill-rule="evenodd"/><path d="M10.213,13.544A1.147,1.147,0,1,0,9.066,12.4,1.147,1.147,0,0,0,10.213,13.544Zm3.441,0A1.147,1.147,0,1,0,12.507,12.4,1.147,1.147,0,0,0,13.654,13.544Zm3.441,0A1.147,1.147,0,1,0,15.947,12.4,1.147,1.147,0,0,0,17.094,13.544ZM6.772,16.985a1.147,1.147,0,1,0-1.147-1.147A1.147,1.147,0,0,0,6.772,16.985Zm3.441,0a1.147,1.147,0,1,0-1.147-1.147A1.147,1.147,0,0,0,10.213,16.985Zm3.441,0a1.147,1.147,0,1,0-1.147-1.147A1.147,1.147,0,0,0,13.654,16.985Zm3.441,0a1.147,1.147,0,1,0-1.147-1.147A1.147,1.147,0,0,0,17.094,16.985ZM6.772,20.426a1.147,1.147,0,1,0-1.147-1.147A1.147,1.147,0,0,0,6.772,20.426Zm3.441,0a1.147,1.147,0,1,0-1.147-1.147A1.147,1.147,0,0,0,10.213,20.426Zm3.441,0a1.147,1.147,0,1,0-1.147-1.147A1.147,1.147,0,0,0,13.654,20.426Z" transform="translate(-2.758 -5.515)" fill="#dc4295" fill-rule="evenodd"/></svg>