<svg xmlns="http://www.w3.org/2000/svg" width="42.996" height="43" viewBox="0 0 42.996 43"><g opacity="0.5"><path d="M343.374,224a7.421,7.421,0,0,1,7.383,7.443c0,2.24-1.118,4.793-3.317,7.59a29.031,29.031,0,0,1-3.191,3.442,1.344,1.344,0,0,1-1.785,0,29.061,29.061,0,0,1-3.185-3.448c-1.68-2.145-3.3-4.882-3.3-7.6A7.408,7.408,0,0,1,343.374,224Zm2.008,7.392a2.015,2.015,0,1,0-3.442,1.422A2.014,2.014,0,0,0,345.382,231.392Z" transform="translate(-335.976 -205.188)" fill="#d65b9e"/><path d="M8.309,18.473a1.344,1.344,0,0,1-1.786,0,29.042,29.042,0,0,1-3.188-3.444C1.14,12.23.026,9.676.026,7.435a7.391,7.391,0,1,1,14.781,0c0,2.241-1.114,4.795-3.31,7.594A29.042,29.042,0,0,1,8.309,18.473Zm-.893-13.1A2.016,2.016,0,1,0,9.432,7.391,2.018,2.018,0,0,0,7.417,5.375Z" transform="translate(28.188 0)" fill="#d65b9e"/><path d="M.026,261.742a2.017,2.017,0,0,0,3.516,1.345H31.613a6.047,6.047,0,1,0,0-12.094H18.134a3.317,3.317,0,1,1,0-6.635H28.767a2.016,2.016,0,1,0,0-2.687H18.134a6,6,0,1,0,0,12.01H31.613a3.359,3.359,0,1,1,0,6.719c-30.236,0-28.026.039-28.146-.08a2.018,2.018,0,0,0-3.442,1.422Z" transform="translate(5.336 -220.76)" fill="#d65b9e"/></g></svg>