<svg xmlns="http://www.w3.org/2000/svg" width="42" height="42" viewBox="0 0 42 42"><rect width="42" height="42" rx="3" fill="#4867aa"/><g transform="translate(14.388 9.778)"><path d="M34.183,0,31.165,0c-3.39,0-5.58,2.247-5.58,5.726v2.64H22.551a.474.474,0,0,0-.474.475v3.825a.474.474,0,0,0,.474.474h3.034v9.652a.474.474,0,0,0,.474.474h3.958a.474.474,0,0,0,.474-.474V13.14h3.547a.474.474,0,0,0,.474-.474V8.841a.475.475,0,0,0-.475-.475H30.492V6.128c0-1.076.256-1.622,1.658-1.622h2.033a.474.474,0,0,0,.474-.474V.479A.475.475,0,0,0,34.183,0Z" transform="translate(-22.077)" fill="#fff"/></g></svg>