<?xml version="1.0" encoding="utf-8"?>
<!-- Generator: Adobe Illustrator 19.2.1, SVG Export Plug-In . SVG Version: 6.00 Build 0)  -->
<svg version="1.1" id="layer" xmlns="http://www.w3.org/2000/svg" xmlns:xlink="http://www.w3.org/1999/xlink" x="0px" y="0px"
	 viewBox="0 0 652 652" style="enable-background:new 0 0 652 652;" xml:space="preserve">
<style type="text/css">
	.st0{fill:#72226D;}
</style>
<g>
	<path class="st0" d="M334.2,304h-29.5l-17.2,17.2h23.7c-3.1,6.9-10,11.7-18.1,11.7c-10.9,0-19.8-8.9-19.8-19.8
		c0-10.9,8.9-19.8,19.8-19.8c3.9,0,7.6,1.2,10.7,3.2l16-15.9c-7.3-6-16.6-9.6-26.8-9.6c-23.3,0-42.2,18.9-42.2,42.2
		s18.9,42.2,42.2,42.2c23.3,0,42.2-18.9,42.2-42.2C335.2,310.1,334.9,307,334.2,304"/>
	<rect x="340.9" y="272.5" class="st0" width="20.8" height="12.7"/>
	<polygon class="st0" points="408.7,354.1 390.7,354.1 390.5,353.6 365.8,290.5 388.1,290.5 399.8,325.6 411.6,290.5 433.5,290.5 	
		"/>
	<rect x="437.4" y="290.5" class="st0" width="20.8" height="63.1"/>
	<rect x="340.9" y="290.5" class="st0" width="20.8" height="63.1"/>
	<rect x="437.4" y="272.5" class="st0" width="20.8" height="12.7"/>
</g>
<g>
	<path class="st0" d="M522.9,353.6h-20.8v-35c0-6.6-2.7-9.9-8.1-9.9c-6.9,0-8.4,5.4-8.4,9.9v35h-20.8v-63.1h14.5l5.7,5.7
		c4.5-4.6,9.8-6.8,15.9-6.8c13.6,0,22.1,9.2,22.1,24V353.6z"/>
	<path class="st0" d="M48.7,354.7c-10.9,0-19.9-4.1-26.8-12.3l-1.1-1.3l14.1-14.1l0.8,0.9c4.5,4.9,8.2,7,12.6,7
		c5.7,0,8.3-3.4,8.3-10.7v-51.7h21.5v52.5C78.1,343.9,67.4,354.7,48.7,354.7"/>
</g>
<g>
	<path class="st0" d="M579.6,290.5l-5.3,5.4c-5-4.4-10.6-6.5-17.7-6.5c-14.1,0-28.5,10.3-28.5,29.8v0.2c0,19.6,14.3,29.8,28.5,29.8
		c6.7,0,12-1.9,16.8-6.1c-0.9,7.5-5.4,12.4-14.4,12.4c-5.4,0-10.1-1-15-3.2l-13.6,13.6l1.9,1c8,4.2,17.3,6.4,27.2,6.4
		c24,0,35.2-12.2,35.2-35v-48H579.6z M574.9,319.4c0,7.3-5.7,12.6-13.4,12.6c-7.8,0-13.3-5.2-13.3-12.6v-0.2
		c0-7.3,5.6-12.6,13.3-12.6c7.8,0,13.4,5.3,13.4,12.6V319.4z"/>
	<path class="st0" d="M107.1,354.7c-13.6,0-22.1-9.2-22.1-24v-40.3h20.8v35c0,6.6,2.7,9.9,8.1,9.9c6.9,0,8.4-5.4,8.4-9.9v-35h20.9
		v63.1h-14.5l-5.7-5.7C118.5,352.5,113.3,354.7,107.1,354.7"/>
	<path class="st0" d="M229.5,354.6c-12.9,0-19.2-6.5-19.2-19.8v-25.9h-7v-18.4h7v-18h20.8v18H245v18.4h-13.9v23.1
		c0,2.8,0.8,3.6,3.3,3.6c2.6,0,5-0.6,7.3-1.8l3-1.6v18.1l-1,0.6C239.5,353.4,234.9,354.6,229.5,354.6"/>
	<path class="st0" d="M180.8,314.8l-1.9-0.6c-4.9-1.7-9.5-3.2-9.5-5.3v-0.2c0-2,2.6-2.8,4.9-2.8c3.4,0,7.9,1.4,12.7,3.9l12-12
		l-0.9-0.6c-6.8-4.5-15.5-7.3-23.5-7.3c-14.1,0-23.6,8.3-23.6,20.7v0.2c0,12.3,9.7,16.8,19.1,19.6c0.8,0.2,1.6,0.5,2.3,0.7
		c5,1.5,9.3,2.7,9.3,5v0.2c0,2.6-3.2,3.1-5.8,3.1c-5,0-11.1-2.1-16.8-5.9l-11.5,11.5l-0.2,0.2l1,0.8c7.7,6.1,17.3,9.5,26.9,9.5
		c15.4,0,24.6-7.8,24.6-21v-0.2C200.1,321.2,187.5,317,180.8,314.8"/>
	<polygon class="st0" points="599.1,293.4 602,293.4 602,300.6 605.4,300.6 605.4,293.4 608.3,293.4 608.3,290.5 599.1,290.5 	"/>
	<polygon class="st0" points="617.2,290.5 615.1,294 612.9,290.5 609.4,290.5 609.4,300.6 612.7,300.6 612.7,295.6 614.3,298 
		615.9,298 617.4,295.6 617.4,300.6 620.8,300.6 620.8,290.5 	"/>
</g>
</svg>
