<svg xmlns="http://www.w3.org/2000/svg" width="30.972" height="30" viewBox="0 0 30.972 30"><g transform="translate(0 -0.501)"><path d="M306.844,296.712l-2.935-2.935-6.071,6.071a7.361,7.361,0,0,1-3.921,2.055l3.868,3.868a.907.907,0,0,0,1.283,0L306.844,298A.907.907,0,0,0,306.844,296.712Zm0,0" transform="translate(-276.138 -275.536)" fill="#fff"/><path d="M26.576,43.032a2.628,2.628,0,0,0,0-3.71l0,0a2.621,2.621,0,0,0-.87-.578,2.627,2.627,0,0,0-.586-2.822l-.007-.007a2.624,2.624,0,0,0-.865-.572,2.627,2.627,0,0,0-.585-2.821l0,0a2.618,2.618,0,0,0-.871-.578,2.628,2.628,0,0,0-.586-2.822h0a2.627,2.627,0,0,0-3.712,0l-1.72,1.72.88.88a3.761,3.761,0,0,1-1.76,6.311,3.761,3.761,0,0,1-2.748,2.75,3.767,3.767,0,0,1-2.751,2.751,3.76,3.76,0,0,1-6.31,1.758L3.2,44.4.266,47.338a.907.907,0,0,0,0,1.283L8.041,56.4a.908.908,0,0,0,1.283,0l5.566-5.566h1.568a5.564,5.564,0,0,0,3.96-1.64Zm0,0" transform="translate(0 -26.161)" fill="#fff"/><path d="M57.321,47.154a1.945,1.945,0,1,0,2.75-2.751,1.945,1.945,0,0,0,2.751-2.751,1.945,1.945,0,1,0,2.751-2.75,1.945,1.945,0,0,0,2.751-2.751l-3.878-3.878a1.945,1.945,0,1,0-2.75,2.751l.486.486a1.945,1.945,0,1,0-2.75,2.751l.972.972a1.945,1.945,0,1,0-2.751,2.751l.972.972a1.945,1.945,0,1,0-2.751,2.75Zm0,0" transform="translate(-51.958 -29.316)" fill="#fff"/><path d="M231.73,1.669a4.494,4.494,0,0,1,.424-.372l-.531-.531A.908.908,0,0,0,230.576.6l-2.24,1.12L230.01,3.39Zm0,0" transform="translate(-214.524)" fill="#fff"/></g></svg>