<svg xmlns="http://www.w3.org/2000/svg" width="42" height="42" viewBox="0 0 42 42"><rect width="42" height="42" rx="3" fill="#0077b5"/><g transform="translate(11.778 11.889)"><g transform="translate(0 0)"><rect width="4.204" height="12.626" transform="translate(0.242 6.077)" fill="#fff"/><path d="M163.077,140.777a4.525,4.525,0,0,0-3.5-1.446,5.049,5.049,0,0,0-1.459.2,3.31,3.31,0,0,0-1.108.554,4.747,4.747,0,0,0-1.217,1.336v-1.8H151.6l.013.612q.013.612.013,3.771t-.026,8.243h4.192V145.2a3.077,3.077,0,0,1,.14-1.032,2.707,2.707,0,0,1,.809-1.089,2.063,2.063,0,0,1,1.344-.44,1.813,1.813,0,0,1,1.612.758,3.687,3.687,0,0,1,.516,2.1v6.753H164.4v-7.236A6.067,6.067,0,0,0,163.077,140.777Z" transform="translate(-144.832 -133.546)" fill="#fff"/><path d="M2.37,9.708a2.4,2.4,0,0,0-1.714.618A2.052,2.052,0,0,0,0,11.887a2.088,2.088,0,0,0,.637,1.554,2.3,2.3,0,0,0,1.682.624h.025a2.4,2.4,0,0,0,1.726-.624,2.017,2.017,0,0,0,.643-1.554,2.125,2.125,0,0,0-.65-1.561A2.33,2.33,0,0,0,2.37,9.708Z" transform="translate(0 -9.708)" fill="#fff"/></g></g></svg>