<svg xmlns="http://www.w3.org/2000/svg" width="14.282" height="14.282" viewBox="0 0 14.282 14.282"><g transform="translate(-5.635 -5.635)"><path d="M19.554,12.776,20.78,14l2.45-2.45a3.466,3.466,0,0,0-4.9-4.9L15.879,9.1,17.1,10.327l2.45-2.451A1.733,1.733,0,0,1,22,10.327Z" transform="translate(-4.327 0)"/><path d="M12.776,19.555,14,20.78l-2.45,2.45a3.466,3.466,0,0,1-4.9-4.9l2.45-2.45L10.327,17.1,7.875,19.555A1.733,1.733,0,1,0,10.327,22l2.45-2.451Z" transform="translate(0 -4.327)"/><path d="M18.473,14.8a.867.867,0,1,0-1.226-1.226l-3.675,3.676A.866.866,0,1,0,14.8,18.471L18.472,14.8Z" transform="translate(-3.246 -3.245)"/></g></svg>