<svg xmlns="http://www.w3.org/2000/svg" width="14" height="18.393" viewBox="0 0 14 18.393"><path d="M12.276,6.553A1.753,1.753,0,0,1,14,8.278v8.786a1.752,1.752,0,0,1-1.724,1.724H1.766a1.7,1.7,0,0,1-1.252-.513A1.656,1.656,0,0,1,0,17.063V8.278A1.656,1.656,0,0,1,.513,7.067a1.7,1.7,0,0,1,1.252-.513h.862V4.788a4.229,4.229,0,0,1,1.293-3.1A4.226,4.226,0,0,1,7.021.395,4.164,4.164,0,0,1,10.1,1.688a4.26,4.26,0,0,1,1.273,3.1V6.554h.9ZM7,14.436a1.678,1.678,0,0,0,1.231-.513,1.784,1.784,0,0,0,0-2.5,1.734,1.734,0,0,0-2.463,0,1.784,1.784,0,0,0,0,2.5A1.68,1.68,0,0,0,7,14.436ZM9.73,6.553V4.788a2.606,2.606,0,0,0-.8-1.909A2.63,2.63,0,0,0,7,2.078a2.564,2.564,0,0,0-1.91.8,2.64,2.64,0,0,0-.78,1.909V6.553H9.73Z" transform="translate(0 -0.395)" fill="#dc4295"/></svg>