<svg xmlns="http://www.w3.org/2000/svg" width="45.83" height="45.86" viewBox="0 0 45.83 45.86"><g opacity="0.5"><path d="M147.78,19.649,143.9,11.815V8.079h6.747a1.343,1.343,0,0,0,.949-2.292l-1.747-1.747L151.6,2.292A1.343,1.343,0,0,0,150.65,0h-8.09a1.343,1.343,0,0,0-1.343,1.343V11.812L137.323,19.6l5.18,2.59Z" transform="translate(-125.038)" fill="#d65b9e"/><path d="M24.1,245.694l-5.9,2.839a1.343,1.343,0,0,1-1.183-.009l-5.769-2.884L.308,267.525a1.343,1.343,0,0,0,1.2,1.943H15.235l10.36-20.757Z" transform="translate(-0.167 -223.638)" fill="#d65b9e"/><path d="M315.739,220.3l4.535-2.183-3.318-6.636a1.343,1.343,0,0,0-2.4,0l-3.287,6.583Z" transform="translate(-283.402 -191.862)" fill="#d65b9e"/><path d="M221.723,319.4l-5.165,2.487a1.343,1.343,0,0,1-1.183-.009l-5.059-2.529L201.7,336.6l26.436-.03a1.343,1.343,0,0,0,1.2-1.943Z" transform="translate(-183.65 -290.743)" fill="#d65b9e"/></g></svg>