<svg xmlns="http://www.w3.org/2000/svg" xmlns:xlink="http://www.w3.org/1999/xlink" width="404.684" height="187.564" viewBox="0 0 404.684 187.564"><defs><linearGradient id="a" x1="0.261" y1="0.655" x2="1.111" y2="0.171" gradientUnits="objectBoundingBox"><stop offset="0" stop-color="#3abff0"/><stop offset="1" stop-color="#3ae9ff"/></linearGradient><clipPath id="b"><path d="M461.1,61.868,521.37,55.9c4.136,0,7.445,3.841,7.445,8.567V197.057c-4.668-.3-71.081-4.372-75.158-4.668V169.582s-11.049,5.081-10.754-10.695c.236-12.231-1.182-22.1-2.659-26.352-10.99-1.359-18.494,10.576-22.866,7.445-12.231-8.8-3.6-40.71,1.6-46.323,8.39-8.981,10.813,7.149,19.853,12.349,9.04,5.259,14.831,4.609,14.831,4.609V69.726A7.662,7.662,0,0,1,461.1,61.868Z" transform="translate(-411.137 -55.9)"/></clipPath><clipPath id="c"><path d="M428.445,145.778c-1.3,10.34-4.077,16.84-5.613,18.258-3.9.709-4.9-9.04-3.6-19.38s4.254-18.73,8.331-18.08C428.564,128.466,429.745,135.438,428.445,145.778Z" transform="translate(-418.691 -126.54)"/></clipPath><linearGradient id="e" x1="-2684.277" y1="162.762" x2="-2683.799" y2="163.316" gradientUnits="objectBoundingBox"><stop offset="0" stop-color="#fff"/><stop offset="1" stop-color="#ededed"/></linearGradient><linearGradient id="g" x1="-3326.439" y1="186.281" x2="-3327.33" y2="186.425" gradientUnits="objectBoundingBox"><stop offset="0" stop-color="#c7c8c8"/><stop offset="1" stop-color="#b5b6b6"/></linearGradient><linearGradient id="i" x1="-33.475" y1="89.025" x2="-33.777" y2="89.732" gradientUnits="objectBoundingBox"><stop offset="0" stop-color="#c9926a"/><stop offset="1" stop-color="#c9926a" stop-opacity="0"/></linearGradient><linearGradient id="j" x1="-42.271" y1="94.978" x2="-42.128" y2="95.757" xlink:href="#i"/><linearGradient id="k" x1="0.93" y1="0.471" x2="0.023" y2="0.516" gradientUnits="objectBoundingBox"><stop offset="0" stop-color="#c8f0ff" stop-opacity="0.302"/><stop offset="0.34" stop-color="#c8f0ff"/><stop offset="1" stop-color="#c8f0ff" stop-opacity="0"/></linearGradient><linearGradient id="l" x1="-88.316" y1="360.113" x2="-88.661" y2="360.906" xlink:href="#i"/><linearGradient id="m" x1="-116.065" y1="340.883" x2="-115.869" y2="341.8" xlink:href="#i"/><linearGradient id="n" x1="58.203" y1="434.809" x2="58.431" y2="435.62" gradientUnits="objectBoundingBox"><stop offset="0" stop-color="#da9c68"/><stop offset="1" stop-color="#da9c68" stop-opacity="0"/></linearGradient><linearGradient id="o" x1="-2288.399" y1="-412.805" x2="-2288.7" y2="-412.086" gradientUnits="objectBoundingBox"><stop offset="0" stop-color="#c97a51"/><stop offset="1" stop-color="#c97a51" stop-opacity="0"/></linearGradient><linearGradient id="p" x1="-2900.375" y1="-229.189" x2="-2900.23" y2="-228.361" xlink:href="#o"/></defs><g transform="translate(0.533 0.533)"><g transform="translate(0 0)"><g transform="translate(338.777 71.789)"><path d="M574.212,227.814h0a61.755,61.755,0,0,0,8.095-.059c2.363-.177,4.727-.414,7.149-.591-.059-.473-.3-1.536-.3-2.009a11.06,11.06,0,0,1,.65-4.845c1.477-3.132,3.013-5.081,3.072-4.727.118.65-.236,6.322-1.3,8.331a29.37,29.37,0,0,1-1.832,3.191c.591-.059,1.182-.118,1.713-.118.886-.059,1.773-.118,2.6-.177a20.918,20.918,0,0,1-.473-2.659,15.531,15.531,0,0,1,1.6-6.381c2.127-4.136,7.622-8.213,8.154-7.977.059,0,.059.059.059.118-.059.473-1.418,2.009-2.3,4.077-.177.473-1.713,5.968-1.713,6.027-.177.65-.65,2.245-.709,2.363h0a18.251,18.251,0,0,1-1.6,2.363l-.059.059-.118.118a17.779,17.779,0,0,1-2.245,1.95c1.773-.118,3.6-.177,5.377-.177a19.03,19.03,0,0,1-.059-2.659,16.32,16.32,0,0,1,2.068-5.85c2.245-3.663,7.149-7.149,7.563-6.913.118.059-.118.414-.591,1a35.336,35.336,0,0,0-2.068,3.486v.059c-.059.177-1.064,2.718-1.182,3.073a.206.206,0,0,1-.059.118c-.414,1.064-1.359,3.545-1.418,3.6l-.118.236a9.524,9.524,0,0,1-1.477,1.891l-.059.059-.118.118a15.4,15.4,0,0,1-2.245,1.773h4.55a14.219,14.219,0,0,1,.414-2.186,16.606,16.606,0,0,1,2.482-4.786c2.245-2.9,6.322-5.377,6.558-5.081h0v.059c0,.059-.059.118-.177.236a.815.815,0,0,0-.177.236c-.118.177-3.368,4.845-3.427,5.022-.059.118-.591,1.123-.768,1.418-.059.059-.059.177-.118.236,0,.059-.059.059-.059.118A29.161,29.161,0,0,1,607,225.451l-.059.059c-.059,0-.059.059-.118.059a11.7,11.7,0,0,1-1.713,1.123c1.3,0,2.6.059,3.9.059.118-.3.532-1.477.768-1.95a15.676,15.676,0,0,1,2.954-3.782c2.422-2.186,6.381-3.722,6.559-3.486.118.177-4.372,4.431-4.431,4.55-.059.059-.65.827-.886,1.123l-.059.059c-.3.414-.65.768-.945,1.123-.059.059-.177.236-.236.3h0l-.118.118a14.617,14.617,0,0,1-1.477,1.064h-.059c-.059,0-.059.059-.118.059a9.3,9.3,0,0,1-1.773.768,5.73,5.73,0,0,1,1,.059c1.182.059,2.422.118,3.6.177.118-.236.709-1.359.945-1.713a17.144,17.144,0,0,1,3.486-3.368c2.777-1.891,7.09-3.132,7.209-2.9.059.059-.473.414-.532.414,0,0-3.368,2.482-4.254,3.309l-.177.177c-.768.709-1.536,1.477-2.3,2.127l-.118.118c-.059.059-.118.059-.118.118h0a16.99,16.99,0,0,1-1.773,1H616.1c-.059,0-.059,0-.118.059a9.414,9.414,0,0,1-2.009.65c.3,0,.591.059.886.059,1.123.059,2.245.177,3.368.3.236-.3.945-1.123,1.241-1.477a20.573,20.573,0,0,1,3.841-2.659c2.9-1.477,6.913-2.068,6.972-1.832,0,.059-.177.177-.473.3-.414.177-1,.414-1.714.768-.236.118-2.954,1.891-3.25,2.068-.768.532-2.659,1.773-2.659,1.773a.6.6,0,0,0-.177.059,9.6,9.6,0,0,1-1.655.65h-.177c-.709.177-1.3.3-1.713.355.236.059.473.059.709.118h0c.3-.059,2.6-.118,2.6-.118h.3c.177,0,1.95.354,1.95.354.059,0,1.3.532,1.773.709.3.118,6.559,2.482,7.208,2.659a5.3,5.3,0,0,1,1.3.3.058.058,0,0,1,.059.059h0c-.177.3-4.845.709-8.331-.236a19.2,19.2,0,0,1-4.963-2.245c-.414-.3-1.241-1-1.654-1.359a.206.206,0,0,1-.118.059c-.414,0-.768-.059-1.123-.059a1.638,1.638,0,0,1-.532-.059,10.285,10.285,0,0,1,1.359.709h0c.059,0,.059.059.118.059h.059a5.722,5.722,0,0,1,.532.414s1.655,2.068,1.832,2.245c.118.177,1.418,1.95,1.418,1.95.118.118.354.473.414.532.414.473.886.886,1.241,1.241a4.182,4.182,0,0,1,.709.65v.059h0a13.086,13.086,0,0,1-5.2-3.191,11.78,11.78,0,0,1-2.245-3.25c-.177-.355-.414-1.241-.532-1.536l-3.013-.177a16.334,16.334,0,0,1,1.418.886l.059.059h.059c.059,0,.059.059.118.059h0a6.442,6.442,0,0,1,1.063,1.123h0l.118.118h0c0,.059.059.059.059.118h0a.206.206,0,0,0,.059.118c.177.3.3.591.473.886.236.473.532.945.768,1.418.059.059.059.118.118.177.236.414,2.836,4.136,2.9,4.254,0,0,.236.236.236.3a.217.217,0,0,1,.059.177c-.236.177-3.722-1.832-5.554-4.2a11.974,11.974,0,0,1-2.009-3.9c-.118-.414-.237-1.359-.3-1.773-1.064-.059-2.127-.118-3.25-.177a14.07,14.07,0,0,1,1.477,1.182l.059.059.059.059A13.633,13.633,0,0,1,613.681,230a5.765,5.765,0,0,1,.3.65c.059.118.532,1.182.591,1.3,0,.059.473,1.182.532,1.3,0,.059,0,.059.059.118,0,.059.354.827.354.886a4.092,4.092,0,0,1,.236.591c0,.059.059.059.059.118a3.476,3.476,0,0,1,.236.473c.177.3.709,1.123.768,1.182a1.8,1.8,0,0,1,.3.414c.118.118.354.473.414.532.236.355.414.532.3.591-.236.236-3.6-2.245-5.377-4.963a16.348,16.348,0,0,1-1.773-4.372,12.056,12.056,0,0,1-.177-2.009c-.591,0-1.123-.059-1.713-.059-.945,0-1.891-.059-2.836-.059a19.506,19.506,0,0,1,1.832,1.359l.059.059.059.059a13.665,13.665,0,0,1,1.3,1.536,1,1,0,0,1,.177.355h0a10.563,10.563,0,0,1,.532,1.123c0,.059.591,1.3.65,1.418,0,.059.059.118.059.177,0,0,3.486,6.086,3.545,6.145a1.292,1.292,0,0,0,.177.3v.177c-.236.236-4.2-2.363-6.2-5.436a16,16,0,0,1-2.127-4.9,17.915,17.915,0,0,1-.236-2.3H601.1c.473.3,3.781,3.072,4.727,5.022.059.059.945,2.186,1,2.245s.827,1.95.886,2.009.532,1.182.532,1.182c0,.059.3.591.3.65.059.059,2.9,3.663,2.6,3.841-.355.236-5.436-3.013-7.858-6.559a16.82,16.82,0,0,1-2.364-5.731,13.527,13.527,0,0,1-.059-2.659,12.853,12.853,0,0,0-1.477.059c-1.3.059-2.541.059-3.781.118.591.355,2.777,2.127,2.777,2.127a7.455,7.455,0,0,1,1.477,1.891,3.479,3.479,0,0,0,.236.473s1.241,3.6,1.3,3.722c.059.177.591,1.773.65,1.832.177.473,1.123,2.9,1.241,3.073a34.872,34.872,0,0,0,2.127,3.013l.059.059a.217.217,0,0,1,.059.177c0,.059,0,.118-.059.118-.532.236-6.263-3.486-8.686-7.445a14.3,14.3,0,0,1-1.95-6.322c0-.65.236-2.127.3-2.718-1.714.059-3.368.177-5.081.355a1.3,1.3,0,0,0-.473.059,8.2,8.2,0,0,1,1.654,1.477l.059.059.059.059a12.675,12.675,0,0,1,1.182,1.773h0c0,.059.236.709.3.886,0,.059.473,1.418.532,1.536s1.182,3.663,1.241,3.663c0,.059,2.009,3.132,1.773,3.309-.355.177-4.136-2.836-5.791-5.849a13.7,13.7,0,0,1-1.418-4.786c-.059-.473.118-1.654.118-2.068-2.836.236-5.672.532-8.567.709a60.623,60.623,0,0,1-7.327,0C573.266,227.755,573.621,227.7,574.212,227.814Z" transform="translate(-573.361 -163.351)" fill="#006673"/><path d="M598.3,181.659h0a62.745,62.745,0,0,0,4.313-6.795c1.182-2.068,2.245-4.2,3.368-6.322a12.994,12.994,0,0,1-1.832-.886,11.636,11.636,0,0,1-3.722-3.191c-1.832-2.954-2.6-5.259-2.3-5.14.65.236,5.2,3.6,6.322,5.613a23.889,23.889,0,0,1,1.654,3.25c.3-.532.532-1,.827-1.536.414-.768.827-1.536,1.3-2.3a18.449,18.449,0,0,1-2.482-1.064,15.745,15.745,0,0,1-4.49-4.845c-2.3-4.018-2.777-10.872-2.3-11.167h.118c.354.3.886,2.3,2.127,4.136.3.414,4.077,4.668,4.077,4.727.473.532,1.536,1.773,1.6,1.891h0a19.717,19.717,0,0,1,1.123,2.659v.059a.217.217,0,0,0,.059.177,12.3,12.3,0,0,1,.355,2.954c.886-1.536,1.832-3.072,2.777-4.609-.354-.236-1.773-1-2.245-1.418a16.894,16.894,0,0,1-3.782-4.9c-1.891-3.9-2.127-9.867-1.654-10.1.118-.059.3.354.532,1,.3.768,1.6,3.368,1.773,3.663v.059c.118.177,1.714,2.363,1.95,2.659,0,.059.059.059.059.118.709.945,2.245,3.072,2.245,3.191l.118.236a8.135,8.135,0,0,1,.768,2.3v.177a15.3,15.3,0,0,1,.236,2.9l.355-.532c.709-1.123,1.418-2.186,2.127-3.309a12.988,12.988,0,0,1-1.6-1.536,17.593,17.593,0,0,1-2.659-4.727c-1.241-3.486-1.064-8.213-.709-8.272h0l.059.059c.059.059.059.177.118.3,0,.059.059.177.059.236.059.177,2.245,5.436,2.3,5.613.059.118.591,1.123.768,1.418.059.059.059.177.118.236,0,.059.059.059.059.118a24.121,24.121,0,0,1,1.536,4.077V153c.059.827.059,1.6.059,2.068.709-1.064,1.418-2.127,2.186-3.191a13.353,13.353,0,0,1-1.182-1.654,17.119,17.119,0,0,1-1.6-4.55c-.532-3.25.355-7.386.65-7.386.236,0,1.359,6.086,1.418,6.145,0,.059.3,1,.414,1.359v.059c.177.473.3.945.473,1.418a.84.84,0,0,0,.118.355h0a.217.217,0,0,0,.059.177s.118,1.241.118,1.832v.177c-.059.827-.236,1.536-.3,1.95a7.19,7.19,0,0,1,.591-.827c.709-1,1.418-1.95,2.127-2.9-.118-.236-.768-1.3-.945-1.773a17.786,17.786,0,0,1-.886-4.727c-.118-3.368,1.241-7.622,1.477-7.622.059,0,.059.65.059.709s.237,4.2.414,5.377a.447.447,0,0,0,.059.236c.177,1,.355,2.127.532,3.072v.355h0a15.719,15.719,0,0,1-.118,2.068v.177c-.177.886-.414,1.654-.532,2.068l.532-.709c.65-.886,1.359-1.832,2.068-2.718a16.6,16.6,0,0,1-.532-1.832,19.645,19.645,0,0,1-.177-4.668c.354-3.191,2.009-6.913,2.245-6.854.059,0,.059.236,0,.591-.059.414-.177,1.064-.3,1.832-.059.3-.059,3.486-.059,3.9,0,.945.059,3.191.059,3.191v.177a8.015,8.015,0,0,1-.355,1.714v.059c0,.059,0,.059-.059.118-.236.709-.473,1.241-.65,1.654.177-.177.3-.354.473-.532h0c.118-.3,1.3-2.245,1.3-2.245.059-.059.059-.118.118-.118v-.059a.058.058,0,0,1,.059-.059c.118-.118,1.359-1.418,1.418-1.418s1.182-.827,1.6-1.123c.3-.177,5.672-4.136,6.145-4.609a13.368,13.368,0,0,1,.945-.945c.059,0,.059-.059.118,0h0c.177.354-2.009,4.431-4.727,6.854a18.383,18.383,0,0,1-4.609,2.954c-.473.177-1.536.473-2.009.65v.118c-.236.3-.473.65-.709.945a1.794,1.794,0,0,0-.3.414,9.121,9.121,0,0,1,1.359-.709h0c.059,0,.059-.059.118-.059h.059a4.483,4.483,0,0,1,.65-.236s2.659-.3,2.9-.3c.177,0,2.364-.118,2.423-.118.177,0,.591-.059.65-.059.65-.118,1.241-.236,1.714-.355a6.939,6.939,0,0,1,.945-.236c.059,0,.059,0,.059.059h0c0,.3-2.9,2.127-5.495,2.659a13.2,13.2,0,0,1-3.959.118,15.851,15.851,0,0,1-1.6-.414c-.591.827-1.182,1.6-1.773,2.423a7.956,7.956,0,0,1,1.536-.65c.059,0,.059,0,.118-.059h.059c.059,0,.059,0,.118-.059h0a11.8,11.8,0,0,1,1.536-.3h.532c.3,0,.65.059,1,.059.532.059,1.123.059,1.654.118h.177c.473.059,5.022-.118,5.14-.118.059,0,.3-.059.414-.059s.118,0,.177.059c.059.3-3.545,2.127-6.559,2.423a14.538,14.538,0,0,1-4.372-.414,13.949,13.949,0,0,1-1.654-.709c-.65.886-1.3,1.713-1.891,2.6a8.7,8.7,0,0,1,1.773-.591h.177a18.478,18.478,0,0,1,2.3-.118c.118,0,.65.118.709.118.118,0,1.3.236,1.418.236.059,0,1.241.236,1.359.236h.118c.059,0,.886.177.945.177.236.059.414.059.591.118h.118a1.663,1.663,0,0,0,.473.059h1.95c.177,0,.591-.059.65-.059.413,0,.65-.059.65.059.059.3-3.841,1.832-7.031,1.832a14.192,14.192,0,0,1-4.668-.886,16.814,16.814,0,0,1-1.773-.945c-.355.473-.65.945-1,1.418-.532.768-1.064,1.6-1.6,2.363a11.351,11.351,0,0,1,2.127-.768h.177a12.122,12.122,0,0,1,2.009-.236h.414c.059,0,.886.118,1.241.177.059,0,1.418.177,1.536.236h.177s7.031.355,7.09.355h.414v.059c.059.355-4.254,2.186-7.918,2.245a12.526,12.526,0,0,1-7.386-1.95c-.886,1.3-1.714,2.6-2.541,3.9.473-.236,4.668-1.477,6.795-1.241.118,0,2.363.414,2.423.414.118,0,2.068.354,2.127.354s1.3.177,1.3.177a2.968,2.968,0,0,1,.709.118c.059,0,4.609-.414,4.668-.118,0,.473-5.495,2.954-9.808,3.013a18.216,18.216,0,0,1-6.086-1.123,18.707,18.707,0,0,1-2.245-1.359c-.236.414-.532.827-.768,1.241-.65,1.064-1.3,2.186-1.95,3.25.591-.3,3.309-1.182,3.309-1.182a8.241,8.241,0,0,1,2.423-.236s.414.059.532.059c0,0,3.722.886,3.781.945.177.059,1.832.473,1.891.473.473.118,3.013.591,3.25.65a29.62,29.62,0,0,0,3.723-.118h.059a.217.217,0,0,1,.177.059c.059,0,.118.059.059.118-.059.591-6.322,3.368-10.99,3.191a16.106,16.106,0,0,1-6.381-1.773,19.888,19.888,0,0,1-2.127-1.773l-2.482,4.431a3.355,3.355,0,0,1-.236.414,12.555,12.555,0,0,1,2.127-.591h.177a14.208,14.208,0,0,1,2.127-.059h0c.059,0,.709.177.886.236.059,0,1.477.414,1.6.414s3.722.945,3.722,1c.059,0,3.722,0,3.722.3,0,.355-4.609,1.95-8.095,1.654a13.585,13.585,0,0,1-4.786-1.418,17.234,17.234,0,0,1-1.654-1.241c-1.359,2.541-2.659,5.081-4.077,7.563a52.259,52.259,0,0,1-4.018,6.145A1.119,1.119,0,0,1,598.3,181.659Z" transform="translate(-583.387 -131.199)" fill="#00a2ba"/><g transform="translate(12.963 21.744)"><path d="M608.885,202.92a15.033,15.033,0,0,0,5.259,2.777c4.372-.827,9.276-3.368,13.885-6.736a19.612,19.612,0,0,1-5.259-2.363,14.9,14.9,0,0,0,8.095.118c.177-.177.414-.355.591-.532a15.48,15.48,0,0,1-5.79-4.2A25.247,25.247,0,0,0,634,193.88a45.451,45.451,0,0,0,9.986-13.472h-.118a19.368,19.368,0,0,1-7.09-1.95,13.169,13.169,0,0,0,8.095-.355c1-3.013,1.123-5.849.059-8.213-4.018-2.777-9.986-2.3-16.249.177a12.314,12.314,0,0,0-3.6,6.263,8.542,8.542,0,0,1-.3-4.491,56.925,56.925,0,0,0-8.508,5.377,14.169,14.169,0,0,0-.768,5.968,21.067,21.067,0,0,1-.827-4.727,56.852,56.852,0,0,0-4.372,4.018,11.359,11.359,0,0,0,.886,5.85,7.817,7.817,0,0,1-2.9-3.663c-5.554,6.5-8.213,13.472-4.491,18.317a9.358,9.358,0,0,0,7.977,3.013A26.365,26.365,0,0,1,608.885,202.92Z" transform="translate(-598.073 -168)" fill="#008591"/><path d="M595.3,210.238a99.167,99.167,0,0,1,10.517-11.167c3.722-3.486,7.622-6.795,11.581-9.926,3.959-3.191,8.036-6.263,12.172-9.277,4.136-2.954,8.331-5.85,12.644-8.567-4.254,2.836-8.331,5.79-12.408,8.863-4.018,3.072-8.036,6.263-11.876,9.513-3.9,3.25-7.681,6.677-11.285,10.163a100.8,100.8,0,0,0-10.1,11.226Z" transform="translate(-595.3 -169.35)" fill="#006673"/></g><g transform="translate(13.967 75.299)"><path d="M606.6,264.229a8.556,8.556,0,0,0-.177,3.663,22.886,22.886,0,0,0,7.268,6.027,13.692,13.692,0,0,1-.059-3.545,9.086,9.086,0,0,0,2.009,4.55,3.485,3.485,0,0,1,.473.236,9.325,9.325,0,0,1,.886-4.313,15.215,15.215,0,0,0,1.063,5.141,28.417,28.417,0,0,0,10.045,2.127.058.058,0,0,0-.059-.059,11.635,11.635,0,0,1-.709-4.431,8.071,8.071,0,0,0,2.245,4.431,7.145,7.145,0,0,0,4.609-2.068c.532-2.954-1.3-6.145-4.2-8.981a7.621,7.621,0,0,0-4.372-.414,5.363,5.363,0,0,1,2.423-1.3,38.542,38.542,0,0,0-5.141-3.368,7.955,7.955,0,0,0-3.486,1.123,13.5,13.5,0,0,1,2.423-1.654c-1.123-.532-2.186-1-3.309-1.418a6.773,6.773,0,0,0-3.013,2.009,4.627,4.627,0,0,1,1.3-2.541c-5.022-1.418-9.572-1.123-11.345,2.186a5.793,5.793,0,0,0,.355,5.2A8.3,8.3,0,0,1,606.6,264.229Z" transform="translate(-600.28 -258.638)" fill="#00a2ba"/><path d="M597.237,260.6a62.539,62.539,0,0,1,8.863,3.013c2.9,1.182,5.731,2.541,8.508,3.9,2.777,1.418,5.495,2.9,8.213,4.431s5.377,3.132,7.977,4.845c-2.659-1.654-5.377-3.132-8.095-4.609s-5.495-2.836-8.331-4.2c-2.777-1.3-5.672-2.6-8.567-3.722a60.716,60.716,0,0,0-8.8-2.777Z" transform="translate(-597 -259.441)" fill="#008591"/></g></g><g transform="translate(252.18 97.908)"><path d="M483.346,215.286h0a75.158,75.158,0,0,0-7.327,3.486c-2.068,1.123-4.136,2.363-6.2,3.545a17.125,17.125,0,0,1,1.123,1.713,10.761,10.761,0,0,1,1.418,4.668c0,3.486-.591,5.849-.827,5.554-.414-.532-2.482-5.85-2.363-8.095a26.941,26.941,0,0,1,.3-3.663c-.532.3-1,.591-1.536.827l-2.3,1.241a15.046,15.046,0,0,1,1.536,2.245,14.786,14.786,0,0,1,1.241,6.5c-.236,4.609-3.427,10.635-4.018,10.695-.059,0-.059-.059-.118-.118-.118-.473.473-2.423.355-4.668,0-.532-.945-6.145-.945-6.2-.118-.65-.354-2.363-.354-2.423h0a15.979,15.979,0,0,1,.473-2.836v-.059c0-.059.059-.118.059-.177a17.553,17.553,0,0,1,1.241-2.718c-1.6.827-3.191,1.654-4.786,2.423a14.668,14.668,0,0,1,1.182,2.363,16.958,16.958,0,0,1,.591,6.145c-.473,4.254-3.486,9.513-3.959,9.454-.177,0-.059-.473.059-1.182a28.926,28.926,0,0,0,.414-4.018v-.059c0-.177-.177-2.9-.236-3.25v-.118c-.059-1.123-.236-3.781-.236-3.9v-.236a10.556,10.556,0,0,1,.532-2.363V230a.206.206,0,0,1,.059-.118,13.6,13.6,0,0,1,1.3-2.541c-.177.118-.414.177-.591.3-1.182.591-2.363,1.123-3.545,1.654.118.473.473,1.654.532,2.186a20.429,20.429,0,0,1-.236,5.436c-.827,3.6-3.486,7.5-3.841,7.386h0v-.059a.643.643,0,0,1,.059-.3c0-.059.059-.177.059-.236.059-.177,1-5.85,1-5.968,0-.177.059-1.241.118-1.654v-.354a36.014,36.014,0,0,1,.827-4.254v-.059c0-.059.059-.059.059-.118a10.686,10.686,0,0,1,1.064-1.773c-1.182.532-2.363,1.064-3.545,1.536a11.472,11.472,0,0,1,.118,2.068,16.557,16.557,0,0,1-1.123,4.668c-1.3,3.013-4.254,6.086-4.491,5.909a60.162,60.162,0,0,1,2.127-5.968c0-.059.236-1,.354-1.359v-.059c.118-.473.236-1,.354-1.418a.84.84,0,0,1,.118-.355h0c0-.059.059-.118.059-.177a13.04,13.04,0,0,1,.886-1.6v-.059l.059-.059a12.507,12.507,0,0,1,1.3-1.477l-.886.355c-1.123.473-2.245.886-3.368,1.359a13.883,13.883,0,0,1-.177,2.009,17.352,17.352,0,0,1-1.713,4.491c-1.714,2.9-5.081,5.849-5.318,5.672-.059-.059.3-.591.3-.65,0,0,2.009-3.663,2.482-4.786,0-.059.059-.118.059-.177.354-.945.827-2.009,1.182-2.9a.6.6,0,0,1,.059-.177c0-.059.059-.118.059-.177h0a13.106,13.106,0,0,1,1.182-1.713l.059-.059.059-.059c.591-.65,1.241-1.182,1.536-1.477-.3.118-.591.236-.827.354-1.064.414-2.127.827-3.191,1.182a15.683,15.683,0,0,1-.532,1.891,18.2,18.2,0,0,1-2.363,4.077c-2.009,2.541-5.377,4.786-5.554,4.609-.059-.059.118-.236.355-.473.3-.355.768-.827,1.241-1.418.177-.236,1.891-2.954,2.127-3.25.473-.827,1.654-2.718,1.654-2.718l.118-.118a8.365,8.365,0,0,1,1.182-1.3l.059-.059.059-.059a12.5,12.5,0,0,1,1.418-1.064,3.329,3.329,0,0,0-.709.236h0c-.236.177-2.3,1.182-2.3,1.182-.059,0-.118.059-.177.059h-.118c-.177.059-1.891.473-1.95.473s-1.418.059-1.891.118c-.354,0-7.031.473-7.622.65a6.857,6.857,0,0,1-1.3.3c-.059,0-.059,0-.118-.059h0c.059-.355,4.077-2.659,7.681-3.309a18.275,18.275,0,0,1,5.436-.059c.473.059,1.536.414,2.068.532l.059-.059a7.891,7.891,0,0,1,1.064-.414,4.059,4.059,0,0,0,.473-.177c-.355,0-.886,0-1.536-.059h-.236c-.118,0-.65-.118-.65-.118s-2.363-1.123-2.6-1.241c-.177-.118-2.068-1.182-2.127-1.182a5.465,5.465,0,0,0-.591-.3,8.07,8.07,0,0,0-1.654-.591,4.782,4.782,0,0,1-.886-.3.058.058,0,0,1-.059-.059h0c.177-.236,3.6-.236,6.027.709a13.81,13.81,0,0,1,3.427,1.95c.3.236.886.945,1.123,1.182.945-.355,1.891-.709,2.777-1.064a11.016,11.016,0,0,1-1.654-.236h-.177c-.059,0-.118,0-.118-.059h0a5.841,5.841,0,0,1-1.418-.532h0a.206.206,0,0,1-.118-.059h0a.206.206,0,0,1-.118-.059h0c-.059-.059-.118-.059-.118-.118a6.687,6.687,0,0,1-.768-.591c-.414-.3-.886-.65-1.3-.945-.059-.059-.118-.059-.177-.118-.355-.3-4.313-2.541-4.432-2.6a1,1,0,0,1-.354-.177c-.059-.059-.118-.059-.118-.118.118-.3,4.136.059,6.795,1.418A15.135,15.135,0,0,1,446,231.416a12.982,12.982,0,0,1,1,1.477c1-.414,2.009-.768,3.013-1.182a8.313,8.313,0,0,1-1.832-.473c-.059,0-.059,0-.118-.059h-.059A16.341,16.341,0,0,1,446,230.057a4.3,4.3,0,0,1-.532-.473c-.118-.118-.945-.827-1.064-.945-.059-.059-.945-.827-1.064-.945l-.059-.059a7.715,7.715,0,0,1-.709-.65c-.177-.177-.355-.3-.473-.414-.059-.059-.059-.059-.118-.059-.177-.118-.3-.236-.413-.3-.3-.177-1.123-.709-1.182-.768a1.77,1.77,0,0,0-.473-.236c-.177-.059-.532-.3-.591-.3-.354-.177-.591-.3-.532-.414.118-.3,4.254.473,6.913,2.245a16.013,16.013,0,0,1,3.486,3.25,12.911,12.911,0,0,1,1,1.714c.532-.236,1.063-.414,1.6-.65.886-.355,1.773-.768,2.6-1.123a12.372,12.372,0,0,1-2.186-.473c-.059,0-.059,0-.118-.059h-.059a15.651,15.651,0,0,1-1.832-.827c-.059-.059-.3-.177-.354-.236h0c-.059-.059-.709-.591-1-.827-.059,0-1.123-.945-1.182-1s-.118-.059-.118-.118c0,0-5.731-4.018-5.79-4.077a1.29,1.29,0,0,1-.3-.177h0v-.059c.118-.354,4.786.414,7.917,2.3a18.83,18.83,0,0,1,4.018,3.545,15.5,15.5,0,0,1,1.241,2.009c1.418-.65,2.836-1.3,4.2-1.95-.532-.059-4.727-1.241-6.381-2.541-.059-.059-1.832-1.6-1.832-1.654-.059-.059-1.6-1.418-1.654-1.418-.059-.059-.945-.827-1-.886a4.3,4.3,0,0,1-.532-.473c-.059-.059-4.136-2.068-4.018-2.363.236-.414,6.2.414,9.867,2.659a18.034,18.034,0,0,1,4.55,4.2A21.97,21.97,0,0,1,459,227.871c.414-.236.886-.414,1.3-.65,1.123-.591,2.245-1.123,3.368-1.713-.65-.059-3.427-.768-3.427-.768a10.213,10.213,0,0,1-2.127-1.064s-.354-.3-.414-.355c0,0-2.659-2.718-2.718-2.777-.118-.118-1.3-1.359-1.359-1.418-.355-.355-2.245-2.127-2.423-2.3-1.359-.945-2.659-1.536-3.191-1.891l-.059-.059-.118-.118c-.059-.059-.059-.118,0-.118.355-.473,7.149.532,10.99,3.132a15.448,15.448,0,0,1,4.431,4.9,19.23,19.23,0,0,1,.886,2.6c1.477-.768,3.013-1.6,4.491-2.423a2.561,2.561,0,0,1,.414-.236,9.962,9.962,0,0,1-2.127-.65c-.059,0-.059,0-.118-.059h-.059a11.721,11.721,0,0,1-1.832-1.123h0l-.65-.65s-1-1.123-1.123-1.182c-.059-.059-2.6-2.777-2.659-2.836s-3.191-2.009-3.013-2.245c.236-.3,4.963.827,7.74,2.9a14.164,14.164,0,0,1,3.309,3.722c.236.414.591,1.536.768,1.95,2.482-1.418,4.9-2.9,7.445-4.2a52.634,52.634,0,0,1,6.677-3.072C484.232,214.931,483.936,215.167,483.346,215.286Z" transform="translate(-426.8 -191.122)" fill="#00a2ba"/><g transform="translate(13.98)"><path d="M488.653,208.667a13.843,13.843,0,0,0,2.127-5.554c-1.359-4.254-4.372-8.8-8.272-13a21.338,21.338,0,0,1-1.714,5.5,14.838,14.838,0,0,0-.827-8.095c-.177-.177-.414-.355-.591-.532a15.325,15.325,0,0,1-3.545,6.263,25.952,25.952,0,0,0,.945-8.508,45.494,45.494,0,0,0-14.535-8.39v.118a19,19,0,0,1-1.123,7.268,13.05,13.05,0,0,0-1.241-7.977,11.855,11.855,0,0,0-8.213.827c-2.3,4.313-1.123,10.222,2.009,16.131a12.108,12.108,0,0,0,6.618,2.836,8.665,8.665,0,0,1-4.431.827,60.377,60.377,0,0,0,6.322,7.858,14.183,14.183,0,0,0,6.027.059,21.463,21.463,0,0,1-4.609,1.359,55.033,55.033,0,0,0,4.491,3.841,12.261,12.261,0,0,0,5.731-1.536,7.713,7.713,0,0,1-3.309,3.309c7.031,4.727,14.358,6.618,18.73,2.363a9.194,9.194,0,0,0,2.068-8.272A23.341,23.341,0,0,1,488.653,208.667Z" transform="translate(-450.461 -175.405)" fill="#008591"/><path d="M496.678,219.447a104.158,104.158,0,0,1-12.29-9.217c-3.9-3.309-7.563-6.795-11.226-10.4-3.6-3.6-7.149-7.268-10.576-11.049s-6.795-7.622-9.986-11.581c3.309,3.9,6.736,7.622,10.222,11.285,3.545,3.663,7.149,7.268,10.813,10.754s7.5,6.854,11.4,10.1a99.793,99.793,0,0,0,12.349,8.8Z" transform="translate(-451.336 -176.139)" fill="#006673"/></g><g transform="translate(15.536 45.887)"><path d="M480.868,255.981a8.541,8.541,0,0,0-2.422-2.718,23.1,23.1,0,0,0-9.395.827,13.48,13.48,0,0,1,2.541,2.482,9.36,9.36,0,0,0-4.609-1.832c-.177.059-.3.118-.473.177a9.523,9.523,0,0,1,2.423,3.663,14.949,14.949,0,0,0-4.372-2.9,28.959,28.959,0,0,0-8.627,5.554h.059a12.211,12.211,0,0,1,3.6,2.6,8.141,8.141,0,0,0-4.668-1.536,7.121,7.121,0,0,0-1.832,4.668c1.713,2.482,5.2,3.486,9.336,3.427a7.763,7.763,0,0,0,3.427-2.777,5.344,5.344,0,0,1-.768,2.6,36.418,36.418,0,0,0,6.027-1.241,8.391,8.391,0,0,0,1.714-3.25,14.74,14.74,0,0,1-.591,2.9,28.613,28.613,0,0,0,3.368-1.359,7.548,7.548,0,0,0,.768-3.545,5,5,0,0,1,.886,2.718c4.55-2.482,7.622-5.968,6.559-9.513a5.7,5.7,0,0,0-3.9-3.427C480.454,254.8,480.868,255.981,480.868,255.981Z" transform="translate(-453.094 -253.065)" fill="#00a2ba"/><path d="M488.315,255.527a58.447,58.447,0,0,1-8.449,4.077c-2.9,1.182-5.849,2.245-8.8,3.191s-5.968,1.832-8.922,2.659c-3.013.827-6.027,1.536-9.04,2.186,3.013-.709,6.027-1.536,8.981-2.423s5.909-1.832,8.863-2.9q4.431-1.507,8.686-3.368a60.009,60.009,0,0,0,8.213-4.254Z" transform="translate(-453.096 -253.734)" fill="#008591"/></g></g><g transform="translate(242.925 27.239)"><path d="M468.7,309.239c-.177,2.186,21.566,5.672,48.569,7.8,26.943,2.127,48.982,2.068,49.1-.118.177-2.186-21.566-5.672-48.569-7.8C490.857,306.993,468.877,307.052,468.7,309.239Z" transform="translate(-434.688 -158.806)" fill="#e2e2e8"/><g transform="translate(42.52)"><path d="M499.645,208.006l54.891,5.968h5.377c4.136,0,7.445-3.841,7.445-8.568V64.367c0-4.727-3.309-8.567-7.445-8.567h-5.377l-54.891,6.027a7.677,7.677,0,0,0-7.445,7.918v130.4A7.662,7.662,0,0,0,499.645,208.006Z" transform="translate(-486.823 -55.8)" fill="#145e85"/><rect width="18.908" height="4.786" transform="translate(80.605 19.017) rotate(180)" fill="#104765"/><rect width="18.908" height="4.786" transform="translate(80.605 145.177) rotate(180)" fill="#104765"/><path d="M499.727,61.868,554.618,55.9h5.377c4.136,0,7.445,3.841,7.445,8.567v1.6h-5.672L492.4,68.308A7.626,7.626,0,0,1,499.727,61.868Z" transform="translate(-486.905 -55.841)" fill="#104765"/><path d="M567.621,308.2c0,4.727-3.309,8.568-7.445,8.568H554.8L499.909,310.8c-3.486,0-6.381-.355-7.208-3.722l74.921-.177Z" transform="translate(-487.028 -158.535)" fill="#104765"/><path d="M490.545,208.006l60.268,5.968c4.136,0,7.445-3.841,7.445-8.568V64.367c0-4.727-3.309-8.567-7.445-8.567l-60.268,6.027a7.677,7.677,0,0,0-7.445,7.918v130.4A7.662,7.662,0,0,0,490.545,208.006Z" transform="translate(-483.1 -55.8)" fill="url(#a)"/><path d="M483.1,69.685a7.677,7.677,0,0,1,7.445-7.918L550.813,55.8c4.136,0,7.445,3.841,7.445,8.567v8.508L483.1,77.544V69.685Z" transform="translate(-483.1 -55.8)" fill="#c4e7fb"/><path d="M558.358,299.976c0,4.727-3.309,8.567-7.445,8.567l-60.268-5.968a7.677,7.677,0,0,1-7.445-7.918V286.8l75.157,4.668Z" transform="translate(-483.141 -150.311)" fill="#c4e7fb"/><path d="M523.16,76.369h.118l22.807-2.186A1.1,1.1,0,1,0,545.908,72L523.1,74.183a1.112,1.112,0,0,0-1,1.182A1.087,1.087,0,0,0,523.16,76.369Z" transform="translate(-499.053 -62.425)" fill="#145e85"/><path d="M517.2,77.464a1.064,1.064,0,1,0,1.064-1.064A1.059,1.059,0,0,0,517.2,77.464Z" transform="translate(-497.052 -64.228)" fill="#145e85"/></g><g transform="translate(0 0.059)"><g clip-path="url(#b)"><g transform="translate(0.09 36.524)"><path d="M480.21,178.034c0,3.959-2.836,13.294-6.322,13-4.372-.355-4.018-1.418-2.245-2.6,1.3-.886,4.668-7.386,4.018-11.285C476.665,175.966,480.21,178.034,480.21,178.034Z" transform="translate(-435.476 -141.882)" fill="#c4c5c5"/><path d="M481.078,177.91c0,3.959-3.132,13.353-6.677,13.235-4.55-.118-3.841-1.654-2.245-2.6,1.359-.827,4.9-6.972,4.372-11.226C477.592,176.137,481.078,177.91,481.078,177.91Z" transform="translate(-435.694 -141.935)" fill="#e7e7e7"/><path d="M480,180.769a11.054,11.054,0,0,0,.236-3.368c1.064-1.241,4.55.591,4.55.591a23.131,23.131,0,0,1-1.359,6.559A8.61,8.61,0,0,0,480,180.769Z" transform="translate(-439.401 -141.959)" fill="#cacaca"/><g transform="translate(38.104 39.047)"><path d="M477.8,183.8a.6.6,0,0,1,.177.059s-.532,1.891-.886,2.836C475.318,186.4,475.141,186.4,477.8,183.8Z" transform="translate(-475.777 -183.8)" fill="#4c010a"/><path d="M478.162,183.8a12.837,12.837,0,0,1-.886,2.836C475.976,186.4,475.5,186.4,478.162,183.8Z" transform="translate(-475.963 -183.8)" fill="#750f08"/></g><path d="M501.032,161.7a6.705,6.705,0,0,1,.709,4.136,8.171,8.171,0,0,1-2.541,5.554,5.682,5.682,0,0,0,3.722-4.668A4.868,4.868,0,0,0,501.032,161.7Z" transform="translate(-447.257 -135.711)" fill="#001322"/><path d="M432.3,165.079c2.009-1.477,7.622-5.672,15.126-5.436s19.5,1.359,20.739,1.3c1.241,0,5.613-.886,6.2-7.031.473-4.609-2.6-6.44-4.254-6.795-2.009-.473-13.885-3.25-17.962-4.254A25.668,25.668,0,0,1,436.968,132.7C437.263,140.027,437.677,153.557,432.3,165.079Z" transform="translate(-419.885 -123.846)" fill="#e0e0e0"/><path d="M455.485,142.863A25.669,25.669,0,0,1,440.3,132.7c.059,1.832.118,4.077.118,6.618a91.079,91.079,0,0,0,16.19,3.841A10.651,10.651,0,0,0,455.485,142.863Z" transform="translate(-423.159 -123.846)" fill="#fff"/><g transform="translate(53.893 26.58)"><path d="M502.7,162.7l.473.118.177.3-.591-.177Z" transform="translate(-502.582 -162.7)" fill="#01040d"/><path d="M503.1,164l.827.236.177.355-.886-.236Z" transform="translate(-502.746 -163.232)" fill="#01040d"/><path d="M503.3,165.6l.945.3.118.414-.945-.236Z" transform="translate(-502.827 -163.887)" fill="#01040d"/><path d="M503.359,167.5l1.123.236v.473l-1.182-.177Z" transform="translate(-502.827 -164.664)" fill="#01040d"/><path d="M503.118,169.4l1.123.177-.059.473L503,169.873Z" transform="translate(-502.705 -165.441)" fill="#01040d"/><path d="M502.677,171.4l1.182.177-.177.414-1.182-.118Z" transform="translate(-502.5 -166.26)" fill="#01040d"/></g><g transform="translate(54.011 26.639)"><path d="M503.173,163.155a.259.259,0,0,1,.177.059l-.177-.3-.473-.118v.059l.354.118Z" transform="translate(-502.7 -162.8)" fill="#004363"/><path d="M503.1,164l.65.177.177.355a.259.259,0,0,1,.177.059l-.177-.355L503.1,164Z" transform="translate(-502.864 -163.291)" fill="#004363"/><path d="M503.3,165.6l.768.236.118.414a.258.258,0,0,1,.177.059l-.118-.414-.945-.3Z" transform="translate(-502.946 -163.946)" fill="#004363"/><path d="M503.4,167.5h0l1,.236v.414h.118v-.473Z" transform="translate(-502.987 -164.723)" fill="#004363"/><path d="M503.2,169.5l1,.177-.059.473h.118l.059-.473L503.2,169.5Z" transform="translate(-502.905 -165.541)" fill="#004363"/><path d="M502.8,171.4l1.064.118-.118.414h.118l.177-.414L502.8,171.4Z" transform="translate(-502.741 -166.319)" fill="#004363"/></g><path d="M477.254,159.822c.355-4.668-1.241-6.618-2.777-7.5-.118-.059-.236-.059-.354-.118,1.536.827,3.25,2.718,2.9,7.563-.354,5.022-3.013,7.445-5.318,8.272h.177C474.182,167.267,476.9,164.9,477.254,159.822Z" transform="translate(-436.006 -131.824)" fill="#001322"/><path d="M487.758,162.09c.532-4.491-1.6-6.381-2.9-7.268-2.363-.532-6.5-1.536-10.222-2.423,1.536.886,3.073,2.777,2.777,7.5-.354,5.081-3.072,7.445-5.318,8.272,4.2.3,8.213.591,10.576.768A8.013,8.013,0,0,0,487.758,162.09Z" transform="translate(-436.169 -131.906)" fill="#004363"/><path d="M495.3,163.768c.532-4.313-1.418-6.2-2.777-7.149-.118-.059-.3-.059-.473-.118,1.3.886,3.427,2.777,2.9,7.268a7.959,7.959,0,0,1-5.141,6.854h.236A7.953,7.953,0,0,0,495.3,163.768Z" transform="translate(-443.411 -133.583)" fill="#001322"/><path d="M493.9,156.9c-.236-.059-.65-.177-1.182-.3,1.3.945,3.309,2.9,2.777,7.149a7.913,7.913,0,0,1-5.2,6.854c.827.059,1.359.059,1.6.059,1.241,0,5.613-.886,6.2-7.031C498.572,159.082,495.559,157.309,493.9,156.9Z" transform="translate(-443.615 -133.624)" fill="#004363"/><path d="M435.9,168.1a46.027,46.027,0,0,1-3.6,11.463c2.009-1.477,7.622-5.672,15.126-5.436s19.5,1.359,20.739,1.3a6.084,6.084,0,0,0,4.727-2.659C464.5,171.7,444.767,169.223,435.9,168.1Z" transform="translate(-419.885 -138.33)" fill="#cacaca"/><ellipse cx="23.103" cy="7.149" rx="23.103" ry="7.149" transform="translate(0 45.854) rotate(-82.918)" fill="#00ace9"/><path d="M428.445,145.778c-1.3,10.34-4.077,16.84-5.613,18.258-3.9.709-4.9-9.04-3.6-19.38s4.254-18.73,8.331-18.08C428.564,128.466,429.745,135.438,428.445,145.778Z" transform="translate(-414.317 -121.326)" fill="#e0e0e0"/><path d="M425.118,127.636a3.289,3.289,0,0,1,2.836-1.064c1.064,1.891,2.245,8.863.945,19.2s-4.077,16.84-5.613,18.258c-1.654.3-2.836-1.3-3.486-4.136C428.131,156.706,431.854,136.558,425.118,127.636Z" transform="translate(-414.771 -121.322)" fill="#cacaca"/><g transform="translate(4.373 5.214)"><g clip-path="url(#c)"><path d="M430.306,161.257s-2.777-.591-4.018-1-1.6-.768-1.714-1.477a16.453,16.453,0,0,1,.473-5.022,1.964,1.964,0,0,1,1.773-1.064,41.116,41.116,0,0,1,4.55.177A20.712,20.712,0,0,1,430.306,161.257Z" transform="translate(-421.083 -137.232)" fill="#b1b2b2"/></g><g clip-path="url(#c)"><path d="M425.827,156.808c-.236,1.6-.827,2.836-1.359,2.718-.532-.059-.768-1.418-.532-3.013s.827-2.836,1.359-2.718C425.827,153.854,426.064,155.213,425.827,156.808Z" transform="translate(-420.799 -137.688)" fill="url(#e)"/></g><g clip-path="url(#c)"><path d="M425.789,157c-.177,1.418-.709,2.482-1.123,2.423s-.591-1.241-.414-2.6c.177-1.418.709-2.482,1.123-2.423S425.966,155.639,425.789,157Z" transform="translate(-420.938 -137.937)" fill="url(#g)"/></g><g clip-path="url(#c)"><path d="M424.962,156.821a4.656,4.656,0,0,1,.709-2.127.486.486,0,0,0-.3-.3c-.414-.059-.886,1-1.123,2.423-.177,1.418,0,2.6.414,2.6a.468.468,0,0,0,.414-.3A4.536,4.536,0,0,1,424.962,156.821Z" transform="translate(-420.938 -137.937)" fill="#8b8c8c"/></g></g><path d="M476.4,152.4c3.663.886,7.858,1.832,10.222,2.423a6.445,6.445,0,0,1,2.423,2.9l-10.222-1.95A5.3,5.3,0,0,0,476.4,152.4Z" transform="translate(-437.928 -131.906)" fill="#fff" opacity="0.17"/><path d="M494.4,156.6c.532.118.945.236,1.182.3a5.457,5.457,0,0,1,3.722,3.072l-2.541-.473A6.719,6.719,0,0,0,494.4,156.6Z" transform="translate(-445.293 -133.624)" fill="#fff" opacity="0.17"/><path d="M424.414,188.9c-.3.414-1.477,1.832-2.482,1.95-1.123.177-.886-1.241,1-1.654C423.586,189.077,424.414,188.9,424.414,188.9Z" transform="translate(-415.367 -146.84)" fill="#bbbaba"/><path d="M429.113,119.2h0c0,.059,0,.059.059.118,3.6,1.241,5.259,11.581,3.781,23.694-1.536,12.172-5.672,21.744-9.454,22.039,3.9.355,8.331-9.454,9.867-22.039C434.9,130.367,433.013,119.673,429.113,119.2Z" transform="translate(-416.285 -118.323)" fill="#004363"/><path d="M432.606,126.379c-.177-.473-.827-2.186-1.654-2.659-1-.532-1.241.886.414,1.891C431.9,125.965,432.606,126.379,432.606,126.379Z" transform="translate(-419.01 -120.125)" fill="#bbbaba"/></g><path d="M475.828,183.16l3.073,1.418a1.208,1.208,0,0,0,1.6-.591l.177-.355a1.208,1.208,0,0,0-.591-1.6l-3.073-1.418a1.208,1.208,0,0,0-1.6.591l-.177.355A1.263,1.263,0,0,0,475.828,183.16Z" transform="translate(-437.326 -106.88)" fill="#deb196"/><path d="M473.874,187.444l3.191,1.182a1.179,1.179,0,0,0,1.536-.709l.118-.355a1.179,1.179,0,0,0-.709-1.536l-3.191-1.182a1.179,1.179,0,0,0-1.536.709l-.118.355A1.287,1.287,0,0,0,473.874,187.444Z" transform="translate(-436.494 -108.623)" fill="#deb196"/><path d="M471.894,191.543l3.132,1.3a1.291,1.291,0,0,0,1.6-.65l.177-.355a1.291,1.291,0,0,0-.65-1.6l-3.132-1.3a1.292,1.292,0,0,0-1.6.65l-.177.355A1.245,1.245,0,0,0,471.894,191.543Z" transform="translate(-435.696 -110.3)" fill="#deb196"/><path d="M470.133,195.908l3.191,1.123a1.189,1.189,0,0,0,1.536-.768l.118-.355a1.189,1.189,0,0,0-.768-1.536l-3.191-1.123a1.189,1.189,0,0,0-1.536.768l-.118.355A1.237,1.237,0,0,0,470.133,195.908Z" transform="translate(-434.94 -112.065)" fill="#deb196"/><path d="M479.03,197.113l.414-1.654s4.845-4.963,4.077-7.74-3.9-1.654-5.672-1.477-1.123,2.186,1.3,2.954c-2.6-.059-4.727,3.132-5.318,5.5a4.9,4.9,0,0,0,.473,3.191C474.953,199.536,479.03,197.113,479.03,197.113Z" transform="translate(-436.746 -109.075)" fill="#e8c0a8"/><g transform="translate(35.014 30.423)"><path d="M514.188,147.988s-8.154-8.981-8.39-21.389c-.177-13.413,7.918-19.085,18.139-19.2,8.745-.118,13.235,1.359,16.131,6.795,2.245.532,3.072,2.363,3.841,3.959,3.191,6.5,2.068,13.117-.473,19.144C539.477,146.688,530.792,148.4,514.188,147.988Z" transform="translate(-484.88 -107.389)" fill="#3d150c"/><g transform="translate(0 50.286)"><path d="M478.553,211.937l.591-12.94-8.154-.3s-1.832,20.976.945,23.162c3.309,2.659,6.795,2.423,10.045-.118,7.149-5.613,15.776-16.19,18.435-23.4.886-2.3-3.25-7.09-5.2-5.554-2.954,2.3-5.022,5.731-8.449,9.749C483.457,206.442,480.325,209.929,478.553,211.937Z" transform="translate(-470.397 -192.495)" fill="#fbcc32"/></g><path d="M510.273,280.5l-.473,83.961s6.559,3.309,12.763.709l2.363-69.9,1.832-.059,8.922,70.017s4.727,2.127,11.7-.473l-7.09-84.257Z" transform="translate(-486.518 -178.216)" fill="#3d3f44"/><path d="M540.634,280.5H510.5v11.7a66.95,66.95,0,0,0,14.653,4.077l.059-1,1.832-.118.177,1.418a112.422,112.422,0,0,0,14.713,1.182Z" transform="translate(-486.805 -178.216)" fill="#303135"/><g transform="translate(36.753 38.649)"><path d="M532.777,184.077l-.177,5.554,9.217.236.177-7.268A17.367,17.367,0,0,1,532.777,184.077Z" transform="translate(-532.6 -176.81)" fill="#e8c0a8"/><path d="M542.218,178.65l.177-5.613-9.217-.236L533,180.068A17.92,17.92,0,0,0,542.218,178.65Z" transform="translate(-532.764 -172.8)" fill="#cf9f82"/></g><path d="M535.541,193.4c5.436,0,6.795-3.013,6.972-3.959a36.294,36.294,0,0,0-12.526-.473C529.869,190.029,530.164,193.4,535.541,193.4Z" transform="translate(-494.77 -140.626)" fill="#e8c0a8"/><path d="M545.759,193.586a47.679,47.679,0,0,0-11.64-4.254c-.3-.059-.532-.118-.827-.177-.177.945-1.241,3.841-6.677,3.841-5.377,0-5.554-3.072-5.436-4.2l-1.241.177c-2.9.473-6.5.945-9.454,2.3,0,0-3.9,17.549-2.186,57.609,0,0,13,4.668,33.856.709,0,0-1.95-28.007.768-39C542.923,210.6,544.873,200.44,545.759,193.586Z" transform="translate(-485.726 -140.697)" fill="#ffdf31"/><path d="M543.688,220.5c-3.722,19.912-17.371,31.788-35.688,27.121.059,4.845.177,8.981.414,14.712,0,0,13,4.668,33.856.709,0,0-1.95-28.007.768-39C542.979,224.045,543.275,222.627,543.688,220.5Z" transform="translate(-485.782 -153.667)" fill="#fbcc32"/><path d="M508.864,137.034c0,11.581-1.122,15.421.709,18.789,1.773,3.191,6.913,7.5,19.026,4.491,8.686-2.186,10.872-8.8,10.872-8.8a4.168,4.168,0,0,0,2.659.473,3.394,3.394,0,0,0,2.777-3.6c-.237-3.072-1.6-3.959-2.777-4.313-2.068-.591-3.486,1.418-3.486,1.418a64.494,64.494,0,0,0-.473-7.622c-.473-3.25-1.064-6.618-16.367-7.563-3.781-.236-8.922-.3-10.931.65C508.923,131.834,508.864,133.961,508.864,137.034Z" transform="translate(-485.996 -116.701)" fill="#e8c0a8"/><g transform="translate(28.525 28.644)"><path d="M522.471,156.418a5.8,5.8,0,0,0-1.714-.3,2.242,2.242,0,0,0-1.536.414c-.414.354-.236.945.118,1.359a8.079,8.079,0,0,0,1.3,1.123,4.854,4.854,0,0,1-1.477-.945c-.118-.118-.177-.236-.3-.354-.059-.177-.177-.3-.177-.473a1.09,1.09,0,0,1,.3-.945,2.419,2.419,0,0,1,1.773-.414A4.164,4.164,0,0,1,522.471,156.418Z" transform="translate(-518.674 -155.867)" fill="#a56052"/></g><path d="M532.981,166.5c2.009,2.423-.118,9.395-6.381,2.009C531.622,168.332,532.981,166.5,532.981,166.5Z" transform="translate(-493.392 -131.574)" fill="#54150c"/><g transform="translate(33.424 22.082)"><path d="M527.458,145.1c-.354,1.359-1.654,5.318,2.245,6.145,3.841.827,3.545-4.018,3.545-4.018A54.188,54.188,0,0,0,527.458,145.1Z" transform="translate(-526.965 -144.9)" fill="url(#i)"/><path d="M528.576,144.843c4.431.886,6.677,2.954,3.841,2.6C529.581,147.029,525.622,144.252,528.576,144.843Z" transform="translate(-527.197 -144.761)" fill="#3d150c"/><path d="M528.1,154.583c.709-1.536,2.363-1.3,2.9.3" transform="translate(-527.429 -148.356)" fill="none" stroke="#4b2b19" stroke-miterlimit="10" stroke-width="0.911"/></g><g transform="translate(24.639 22.007)"><path d="M516.732,144.9c.354,1.064,1.654,4.845-1.359,5.731-2.954.886-3.073-4.018-3.073-4.018S515.372,145.314,516.732,144.9Z" transform="translate(-512.18 -144.743)" fill="url(#j)"/><path d="M515.881,144.673c-3.309.591-5.318,2.718-2.3,1.95S517.594,144.378,515.881,144.673Z" transform="translate(-512.098 -144.635)" fill="#3d150c"/><path d="M515.8,153.464c.532-1.891,2.541-1.654,2.777-.177" transform="translate(-513.613 -147.694)" fill="none" stroke="#4b2b19" stroke-miterlimit="10" stroke-width="0.911"/></g><path d="M539.425,129.957c-1.654,1.654-6.086,2.541-9.572,2.541-16.012,0-19.321-4.491-19.853-5.022l2.422-6.027a23.512,23.512,0,0,1,14.358-.473A24.123,24.123,0,0,1,539.425,129.957Z" transform="translate(-486.6 -112.579)" fill="#3d150c"/><path d="M533.1,172.891c2.3.827,3.368-1.3,3.25-3.191A3.642,3.642,0,0,0,533.1,172.891Z" transform="translate(-496.051 -132.883)" fill="#931542"/></g><path d="M570.584,289.1a56.052,56.052,0,0,1-4.254,4.313,1.419,1.419,0,0,0-.354.473l-2.423,4.018a.45.45,0,0,0,0,.473h0a.472.472,0,0,0,.768.118l2.482-2.482a.248.248,0,0,1,.414.236l-.768,2.836-1,5.022a.524.524,0,0,0,.355.591h.059a.55.55,0,0,0,.709-.355l1.95-5.554s-1.182,5.318-1.241,5.613.532.118.591-.059l2.068-4.9s-1.714,4.313-1.773,4.431c-.118.236.414.177.414.177.118-.059.3-.118.354-.236l2.363-4.2s-1.359,3.131-1.477,3.486c-.177.414.414.236.414.236a.589.589,0,0,0,.3-.236l2.127-3.782a1.114,1.114,0,0,0,.118-.473l.118-9.04Z" transform="translate(-473.469 -151.311)" fill="#f9c285"/><path d="M559.875,203.213c-1.182-5.081,3.723-7.858,6.618-6.854,1.418.532,2.127,1.654,2.777,3.545a249.53,249.53,0,0,1,7.622,28.479c.827,4.018-4.254,25.053-4.254,25.053l-6.972-1.713s1.241-22.807,1.063-23.457C564.957,221.884,560.821,207.467,559.875,203.213Z" transform="translate(-471.918 -113.284)" fill="#ffdf31"/></g></g><path d="M505.79,108.7c-4.077,6.795-1.6,14.476,7.74,17.253,9.336,2.836,17.194.591,15.953-5.2s-6.44-5.613-15.185-6.027A8.938,8.938,0,0,1,505.79,108.7Z" transform="translate(-449.089 -77.443)" fill="#3d150c"/><path d="M562.8,115.359s.414-5.259,2.3-6.559a19,19,0,0,0-1.654,5.14,9.453,9.453,0,0,1,4.431-2.009C567.527,113.291,562.8,115.359,562.8,115.359Z" transform="translate(-473.188 -77.484)" fill="#3d150c"/><ellipse cx="5.2" cy="5.79" rx="5.2" ry="5.79" transform="translate(72.004 140.802)" fill="#9cd8f7"/></g><path d="M653.018,113.109a3.309,3.309,0,1,1-3.309-3.309A3.3,3.3,0,0,1,653.018,113.109Z" transform="translate(-264.467 -50.655)" fill="none" stroke="#008591" stroke-miterlimit="10" stroke-width="1.067"/><ellipse cx="0.709" cy="0.709" rx="0.709" ry="0.709" transform="translate(400.722 59.027)" fill="none" stroke="#008591" stroke-miterlimit="10" stroke-width="1.067"/><path d="M682.036,212.664a.768.768,0,1,1-.768-.768A.713.713,0,0,1,682.036,212.664Z" transform="translate(-278.419 -92.424)" fill="none" stroke="#008591" stroke-miterlimit="10" stroke-width="1.067"/><path d="M458.736,125.668a2.068,2.068,0,1,1-2.068-2.068A2.055,2.055,0,0,1,458.736,125.668Z" transform="translate(-185.995 -56.301)" fill="none" stroke="#008591" stroke-miterlimit="10" stroke-width="1.067"/><path d="M419.6,229.5a1.3,1.3,0,1,1-1.3-1.3A1.311,1.311,0,0,1,419.6,229.5Z" transform="translate(-170.611 -99.097)" fill="none" stroke="#008591" stroke-miterlimit="10" stroke-width="1.067"/><ellipse cx="3.722" cy="3.722" rx="3.722" ry="3.722" transform="translate(68.599 8.272)" fill="none" stroke="#008591" stroke-miterlimit="10" stroke-width="1.067"/><ellipse cx="1.891" cy="1.891" rx="1.891" ry="1.891" transform="translate(227.304)" fill="none" stroke="#008591" stroke-miterlimit="10" stroke-width="1.067"/><ellipse cx="2.245" cy="2.245" rx="2.245" ry="2.245" transform="translate(0 117.049)" fill="none" stroke="#008591" stroke-miterlimit="10" stroke-width="1.067"/><ellipse cx="1.123" cy="1.123" rx="1.123" ry="1.123" transform="translate(87.566 77.166)" fill="none" stroke="#008591" stroke-miterlimit="10" stroke-width="1.067"/><ellipse cx="1.123" cy="1.123" rx="1.123" ry="1.123" transform="translate(166.918 150.197)" fill="none" stroke="#008591" stroke-miterlimit="10" stroke-width="1.067"/><g transform="translate(19.995 15.465)"><path d="M40.434,132.613c15.185,3.841,30.134,11.226,45.851,12.7a63.07,63.07,0,0,0,34.093-6.322c12.172-6.027,23.457-16.308,36.988-15.421,12.7.827,22.453,11.285,34.034,16.662,9.867,4.609,22.157,5.2,31.375-.65,7.858-5.022,12.29-13.826,18.612-20.621s11.758-10.281,23.516-7.681c0,0,.886.059,1.359-2.718s-.532-3.013-.532-3.013c-6.854-3.368-11.049-9.217-13.826-17.844C247.59,74.3,247.945,69.1,244.4,60.765c-2.186-5.081-4.845-10.222-9.336-13.531-6.618-4.9-15.776-4.786-23.871-3.25-12.881,2.423-24.993,7.8-37.7,11.108s-26.648,4.491-38.465-1.241c-8.095-3.9-14.476-10.695-22.63-14.476-8.922-4.136-19.262-4.2-28.952-2.3C73.818,38.962,64.66,42.8,55.442,46.23c-3.25,1.241-6.5,2.363-9.749,3.545C38.484,52.729,26.135,131.314,40.434,132.613Z" transform="translate(-33.84 -35.874)" fill="url(#k)"/></g><g transform="translate(5.731 54.728)"><path d="M81.808,159.406c1,.768.532,2.068-.059,3.013-1.536,2.482-11.876,11.7-11.876,11.7L66.8,169.51s8.331-8.686,9.395-9.867C77.2,158.579,80.272,158.283,81.808,159.406Z" transform="translate(-33.062 -125.387)" fill="#e8c0a8"/><g transform="translate(26.648 43.785)"><path d="M58.7,213c0,.236,1.832,3.782,1.832,3.782v3.545l-.473.414L58.877,217.6l-.414,2.482-.768,3.6-.65-.059.355-4.254-.768,3.9-.3-.118.059-3.782-.118,3.427-.414-.3-.3-3.309-.059,2.836-.414-.355-.3-3.132,2.186-5.85Z" transform="translate(-54.8 -191.269)" fill="#e8c0a8"/><path d="M64.713,176.648c1.477.709,2.245,2.836,1.773,4.786l-6.027,18.789L57.8,200.4s1.891-9.926,3.486-17.9C62.231,177.535,62.94,175.762,64.713,176.648Z" transform="translate(-56.027 -176.429)" fill="#e8c0a8"/></g><path d="M105.887,165.674c1.123-.591,2.127.355,2.718,1.359,1.6,2.482,4.55,15.067,4.55,15.067l-4.55,1.536s-4.254-11.226-4.9-12.7A5.165,5.165,0,0,1,105.887,165.674Z" transform="translate(-48.101 -128.168)" fill="#e8c0a8"/><g transform="translate(60.369 51.979)"><path d="M127.341,219.3c.118.177,3.841,1.654,3.841,1.654l2.363,2.659-.059.591-2.9-1.6,1.359,2.186,1.773,3.25-.532.414-2.482-3.427,1.95,3.486-.3.118-2.423-2.9,2.127,2.659h-.532l-2.363-2.3L131,228.281h-.532l-2.245-2.186-2.127-5.849Z" transform="translate(-117.693 -202.163)" fill="#e8c0a8"/><path d="M113.07,190.771c1.536-.945,2.6-.473,3.545,1.359l6.44,17.312-1.654,1.123s-3.545-5.672-7.563-12.7C111.3,193.371,111.416,191.835,113.07,190.771Z" transform="translate(-111.871 -190.296)" fill="#e8c0a8"/></g><path d="M103.815,155.59c-.827-.414-5.909,7.858-5.436,9.336a117,117,0,0,0,4.845,10.931l7.327-3.072s-2.541-8.095-3.072-10.281C106.887,160.021,105.883,156.594,103.815,155.59Z" transform="translate(-45.969 -124.111)" fill="#d7ecec"/><path d="M21.989,274.336a3.737,3.737,0,0,0-.709,1.359,1.793,1.793,0,0,0,0,1.241l.355.059c-2.009,2.777-6.027,9.336-6.913,10.695v-.059c-.473.709-1.359,2.541-1.359,2.541s-1.064-.177-1.064-.532a48.1,48.1,0,0,1,2.245-8.449c1.95-4.431,3.841-8.39,3.841-8.39l1.6.65C20.453,273.568,21.28,274.041,21.989,274.336Z" transform="translate(-10.763 -172.073)" fill="#c55f02"/><path d="M9.7,317.03c0,1.654,16.9,3.013,37.638,2.954,20.8-.059,37.579-1.477,37.579-3.132s-16.9-3.013-37.638-2.954C26.48,313.958,9.7,315.376,9.7,317.03Z" transform="translate(-9.7 -188.887)" fill="#e2e2e8"/><path d="M115.9,312.236a5.162,5.162,0,0,0,2.659-1.182,1.657,1.657,0,0,0,.473-.709c2.836-.177,9.572-1.477,10.99-1.714l-.059.059c1.773-.354,3.132-.591,3.132-.591s.709.827.414.945c-.414.177-3.722,2.363-4.077,2.482-4.136,1.418-12.349,4.313-12.349,4.313l-.768-1.714A6.033,6.033,0,0,1,115.9,312.236Z" transform="translate(-53.151 -186.516)" fill="#c55f02"/><path d="M94.18,245.918C90.93,238.65,80,209.934,80,209.934c-.118-4.55,12.881.827,12.881.827s5.259,25.171,6.381,31.257C100.5,248.1,95.007,247.809,94.18,245.918Z" transform="translate(-38.462 -145.604)" fill="#c39e50"/><path d="M70.19,240.856l10.931-23.162S83.957,208,74.267,207c-3.6.768-4.372,7.09-4.963,8.272l-6.2,23.753C64.223,240.679,68.713,241.624,70.19,240.856Z" transform="translate(-31.548 -145.151)" fill="#c39e50"/><path d="M114.736,287.877l-7.149-29.07c-1.359-4.136-3.427-5.318-5.968-3.486-1.6,1.182-.177,5.613,1.6,11.226,2.3,7.208,6.086,23.044,6.086,23.044C111.664,289.591,113.673,289.236,114.736,287.877Z" transform="translate(-47.024 -164.579)" fill="#c39e50"/><path d="M25.582,265.7l26.057-11.4a15.634,15.634,0,0,1,2.954.414,4.067,4.067,0,0,1,.945,2.777c-.414,3.486-1.418,3.427-3.6,4.313l-25.112,9.277C26.645,270.9,24.1,267.89,25.582,265.7Z" transform="translate(-16.01 -164.504)" fill="#c39e50"/><path d="M83.39,152.251c2.068-.591,4.609.177,6.677.591,2.127.414,2.777,1.359,3.722,2.9.709,1.123,1.241,3.841.473,9.1s-2.3,23.93-2.836,26.234c-3.663,3.663-17.194,1.713-20.326-1.654,4.786-18.553,4.431-24.816,6.854-30.429C79.845,154.792,80.672,152.96,83.39,152.251Z" transform="translate(-34.821 -122.663)" fill="#80a92a"/><path d="M83.385,154.644c-1.714-2.245-4.609-1.6-7.327.827-3.25,2.836-7.858,9.04-7.858,9.04l4.668,6.086s7.445-6.618,9.04-8.213S85.1,156.89,83.385,154.644Z" transform="translate(-33.635 -123.166)" fill="#d7ecec"/><path d="M100.65,150.158l.827-5.909-5.436-1.95L94.8,148.918C95.745,150.158,98.877,151.695,100.65,150.158Z" transform="translate(-44.518 -118.68)" fill="#d79f80"/><g transform="translate(41.935)"><path d="M104.973,106.8c1.064,2.127-.945,7.386-.945,7.386s-7.74-1.241-10.281-1.123c-2.482.059-4.313,6.322-6.381,11.64-2.482,2.068-7.5-4.136-5.2-11.345-.709,1.182-1.359,1.182-1.359,1.182s-.945-2.659,2.186-4.727a6.174,6.174,0,0,1-2.245.591,3.562,3.562,0,0,1,2.9-1.477c.473-3.072.886-3.959,2.009-4.786a9.871,9.871,0,0,1-.355,2.363s1.241-2.659,5.968-3.663,5.5-.236,5.5-.236a4.406,4.406,0,0,1-2.482.709C98.533,103.433,101.842,104.26,104.973,106.8Z" transform="translate(-80.673 -102.325)" fill="#f7a600"/><path d="M106.562,124.863c-1.359,6.795-1.182,9.217-2.659,10.99-1.418,1.654-4.963,3.6-11.758.355-3.25-1.6-3.427-6.145-3.427-6.145a2.781,2.781,0,0,1-1.6-.059,1.977,1.977,0,0,1-1.182-2.423c.473-1.773,1.418-2.127,2.186-2.186a2.047,2.047,0,0,1,1.891,1.241A40.457,40.457,0,0,1,91.2,122.2c.65-1.832,1.359-4.313,8.627-2.9,2.245.473,5.259.886,6.381,1.713C107.153,121.732,106.917,123.032,106.562,124.863Z" transform="translate(-82.794 -109.102)" fill="#e8c0a8"/><path d="M112.362,107.24a5.756,5.756,0,0,0-4.727-1.3c.591.3.591,1.241.236,1.773-1.773,2.423-4.431.945-6.677.414a7.968,7.968,0,0,0-6.677,1.536,9.524,9.524,0,0,0-2.718,3.9,6.062,6.062,0,0,1,.827-.236c2.068-.532,4.018.3,7.209,2.3,3.427,2.186,7.918,3.013,11.581.945C114.9,114.567,115.789,110.195,112.362,107.24Z" transform="translate(-85.226 -103.769)" fill="#f7a600"/><path d="M92.525,128.7c-1.064,1.95-.768,4.313.059,5.259C93.707,132.009,92.525,128.7,92.525,128.7Z" transform="translate(-85.242 -113.116)" fill="#f7a600"/><g transform="translate(17.446 19.011)"><path d="M110.2,134.677a3.346,3.346,0,0,1,1.064-.177,1.176,1.176,0,0,1,1,.473.537.537,0,0,1,0,.591,2.572,2.572,0,0,1-.355.414,3.01,3.01,0,0,1-1,.414,4.407,4.407,0,0,0,.886-.532,1.566,1.566,0,0,0,.3-.355.5.5,0,0,0,0-.414,1.388,1.388,0,0,0-.827-.414A3.213,3.213,0,0,0,110.2,134.677Z" transform="translate(-110.2 -134.5)" fill="#a56052"/></g><g transform="translate(13.714 14.282)"><path d="M107.734,126.8c0,.827.118,3.782-2.245,3.9s-1.418-3.191-1.418-3.191A30.787,30.787,0,0,1,107.734,126.8Z" transform="translate(-103.884 -126.621)" opacity="0.59" fill="url(#l)"/><path d="M107.309,126.5c-2.718.118-4.313,1.123-2.6,1.182S109.14,126.44,107.309,126.5Z" transform="translate(-103.931 -126.497)" fill="#bf6600"/></g><g transform="translate(19.728 14.569)"><path d="M114.5,127.5c-.355.591-1,3.191.591,4.018,1.654.827,2.009-3.782,2.009-3.782A7.651,7.651,0,0,1,114.5,127.5Z" transform="translate(-114.062 -127.194)" opacity="0.59" fill="url(#m)"/><path d="M115.066,126.993c2.009-.118,3.427.827,1.6.827C114.771,127.82,114,127.052,115.066,126.993Z" transform="translate(-114.276 -126.983)" fill="#bf6600"/></g><path d="M101.427,139.8c-.65,1.359.059,3.191,1.064,3.427,1.536.414,1.3-1.241,2.777-1.773A10.04,10.04,0,0,1,101.427,139.8Z" transform="translate(-89.062 -117.657)" fill="#ae2e34"/><path d="M116.973,132.091c-.059.3-.177.532-.3.532s-.177-.236-.177-.591c.059-.3.177-.532.3-.532C116.973,131.5,117.032,131.736,116.973,132.091Z" transform="translate(-95.331 -114.261)" fill="#4b2b19"/><path d="M107.773,131.632a.694.694,0,0,1-.236.591c-.118,0-.236-.236-.236-.532a.694.694,0,0,1,.236-.591C107.714,131.1,107.832,131.336,107.773,131.632Z" transform="translate(-91.567 -114.098)" fill="#4b2b19"/></g><path d="M114.832,312.236l5.377-2.009a.918.918,0,0,0,.532-1.182l-.591-1.654a.918.918,0,0,0-1.182-.532l-5.377,2.009a.918.918,0,0,0-.532,1.182l.591,1.654A.918.918,0,0,0,114.832,312.236Z" transform="translate(-51.964 -185.984)" fill="#edc650"/><path d="M24.084,272.2l1.123,5.613a.92.92,0,0,0,1.064.709l1.714-.354a.92.92,0,0,0,.709-1.064l-1.123-5.613a.92.92,0,0,0-1.064-.709l-1.714.355A.92.92,0,0,0,24.084,272.2Z" transform="translate(-15.576 -171.239)" fill="#edc650"/></g><g transform="translate(87.677 56.442)"><path d="M235.741,181.681c-1.3,1.064-.827,3.722,0,5.79l6.5,14.949,1.654-2.482-4.372-15.244S237.75,180.144,235.741,181.681Z" transform="translate(-183.798 -136.376)" fill="#fbca8e"/><path d="M192.827,207.018c0,.236,2.068,3.663,2.068,3.663l.3,3.545-.414.414-1.418-3.013-.236,2.541-.532,3.663h-.65l.059-4.254-.532,3.959-.3-.118L191,213.636l.118,3.427-.414-.3-.532-3.25.177,2.836-.414-.354-.532-3.132,1.773-5.968Z" transform="translate(-165.168 -146.824)" fill="#fac37d"/><path d="M196.757,177.478c1.536.473,2.068,1.654,1.182,3.722-3.959,9.158-4.254,15.185-4.254,15.185l-1.891.945a130.777,130.777,0,0,1,.473-13.472C192.916,178.718,194.039,176.65,196.757,177.478Z" transform="translate(-166.144 -134.714)" fill="#fac37d"/><path d="M237.445,129.7c.709,5.672-1.477,15.658-2.659,18.789-3.309-1.6-6.086-5.554-6.086-5.554l2.659-10.517Z" transform="translate(-181.247 -115.238)" fill="#85532d"/><path d="M239.517,152.254c-.827-.473-3.9,1.654-3.722,3.191.118,1.064.709,15.776.709,15.776l3.959,2.009s1.773-12.822,1.891-15.067C242.472,155.149,241.29,153.2,239.517,152.254Z" transform="translate(-184.147 -124.439)" fill="#b70443"/><path d="M152.3,317.03c0,1.654,16.9,3.013,37.638,2.954,20.8-.059,37.579-1.477,37.579-3.132s-16.9-3.013-37.638-2.954C169.08,313.958,152.241,315.376,152.3,317.03Z" transform="translate(-149.989 -190.601)" fill="#e2e2e8"/><path d="M157.022,273.977a3.736,3.736,0,0,0-.709,1.359,1.792,1.792,0,0,0,0,1.241v.059c-2.009,2.777-4.609,6.2-5.5,7.563v-.059c-.473.709-1.359,2.541-1.359,2.541s-1.064-.177-1.064-.532a15.452,15.452,0,0,1,1.182-5.259c1.95-4.431,3.841-8.39,3.841-8.39l1.6.65A14.624,14.624,0,0,1,157.022,273.977Z" transform="translate(-148.389 -173.664)" fill="#fbca8e"/><path d="M228.112,244.245,213.4,209.68c-.118-4.372,12.822.768,12.822.768l6.381,30.311C233.311,251.158,230.121,245.131,228.112,244.245Z" transform="translate(-174.987 -147.24)" fill="#fbca8e"/><path d="M202.913,240.793,214.258,217.1s2.836-9.395-6.795-10.4c-3.545.709-4.313,6.854-4.9,8.036L196,240.97C197,242.565,201.436,241.561,202.913,240.793Z" transform="translate(-167.869 -146.742)" fill="#fbca8e"/><path d="M235.048,255.927c1.182-2.363,4.49-1.241,5.731,2.009l7.327,31.434-3.427.768s-7.8-20.857-8.745-24.934C234.989,261.068,233.866,258.29,235.048,255.927Z" transform="translate(-183.637 -166.367)" fill="#fbca8e"/><path d="M160.3,269.6a4.291,4.291,0,0,1,.473-2.6l22.394-9.867c1.3.177,4.668-1.418,4.786-1.241a3.926,3.926,0,0,1,.945,2.718c-.414,3.368-1.359,3.309-3.545,4.2l-24.7,7.681C160.418,270.367,160.3,269.776,160.3,269.6Z" transform="translate(-153.262 -166.862)" fill="#fbca8e"/><path d="M251.1,310.432a5.162,5.162,0,0,0,2.659-1.182,1.658,1.658,0,0,0,.473-.709c2.836-.177,6.736-.473,8.154-.709l-.059.059c1.773-.354,3.132-.591,3.132-.591s.709.827.414.945c-.414.177-3.722,2.363-4.077,2.482-4.136,1.418-9.572,3.309-9.572,3.309l-.768-1.714A8.264,8.264,0,0,1,251.1,310.432Z" transform="translate(-190.412 -187.902)" fill="#fbca8e"/><path d="M153.418,272.4l1.6.65c.059,0,.177.059.236.059a19.493,19.493,0,0,0-2.423,4.077c-1.359,2.3-2.541,4.609-2.127,7.031-.473.768-1.241,2.363-1.241,2.363s-1.064-.177-1.064-.532a15.452,15.452,0,0,1,1.182-5.259C151.527,276.418,153.418,272.4,153.418,272.4Z" transform="translate(-148.389 -173.623)" fill="#5d041c"/><path d="M251.6,311.968a48.825,48.825,0,0,0,4.9-1.123c2.245-.591,4.845-1.241,6.381-3.013,1.6-.3,2.836-.532,2.836-.532s.709.827.414.945c-.414.177-3.722,2.363-4.077,2.482-4.136,1.418-9.572,3.309-9.572,3.309l-.768-1.713A.839.839,0,0,0,251.6,311.968Z" transform="translate(-190.617 -187.902)" fill="#5d041c"/><path d="M217.149,148.473l8.8-.473,5.85,2.659c.709,2.186,1.418,4.313,1.773,5.85.414,1.536,2.068,4.2,1.714,5.909a4.865,4.865,0,0,1-2.127,3.013c-.709,1.891-1.654,3.9-2.482,6.381-1.6,4.727-2.541,8.508-2.541,8.508l-8.627-.827c-.591.059-2.127.709-1.95-1.773.414-5.968-1.123-21.507-1.064-22.689C216.972,150.127,216.44,148.236,217.149,148.473Z" transform="translate(-176.255 -122.726)" fill="#d7004f"/><path d="M230.073,140.385a4.3,4.3,0,0,1-1.773-1.418l1.418-13.767,4.786.768-.118,14.594C233.5,141.567,231.2,140.858,230.073,140.385Z" transform="translate(-181.084 -113.397)" fill="#f0ae66"/><path d="M209.139,192.8c5.2,3.427,11.758,1.832,11.758,1.832l5.081,34.8s-22.275.827-30.193-5.85c-.3-.236,2.541-15.717,8.449-25.407C206.776,193.982,209.139,192.8,209.139,192.8Z" transform="translate(-167.772 -141.055)" fill="#5d041c"/><path d="M204.936,151.7c-.532.709-7.977,10.045-10.635,14.122a6.947,6.947,0,0,0,5.79,2.423c2.482-2.6,8.095-7.8,10.872-10.517,2.836-2.718,2.068-8.154,0-8.095C209.131,149.691,207.122,148.745,204.936,151.7Z" transform="translate(-167.173 -123.353)" fill="#d7004f"/><path d="M234.213,150.227a10.173,10.173,0,0,1-2.009,7.031c-3.663-1.95-7.5-9.04-7.5-9.04l4.9-.118Z" transform="translate(-179.611 -122.767)" fill="#f0ae66"/><path d="M229.723,133.344c-.414-.591-.827-.65-1.123-1.241l2.3-11.4,4.668,1.418-1.654,11.64C232.618,134.467,230.845,134.881,229.723,133.344Z" transform="translate(-181.207 -111.556)" fill="#eda159"/><path d="M224.214,128.564s9.69,2.482,11.285.118a5.19,5.19,0,0,0,.65-2.068c.059-.355.236-1.714.3-2.068.3-3.309.118-7.563-1.064-10.222-1.95-4.372-8.272-9.926-12.408-7.681C218.778,108.947,211.037,116.392,224.214,128.564Z" transform="translate(-176.407 -105.594)" fill="#fac37d"/><path d="M245.507,127.05h0l.118-.65a27.1,27.1,0,0,0,4.431,2.718c-2.245,3.013-5.377,1.123-5.259-2.127a1.261,1.261,0,0,1,.709.059C245.684,127.109,245.625,127.05,245.507,127.05Z" transform="translate(-187.832 -113.888)" fill="#fac37d"/><path d="M223.073,107.869s.65-1.891-3.368-2.423c-4.313-.591-8.213-.3-11.7,4.609-1.832,2.6-2.541,6.5-1.418,12.231.709,3.663-1.182,12.29-8.567,15.776-2.186,2.6,5.081,6.972,7.8,6.559.886-.118,4.786-1.832,7.74-9.867a22.348,22.348,0,0,1-2.9,9.336c-.3.532,3.072-.886,4.609-2.954,3.368-4.609,8.095-22.216,3.722-29.07C217.519,109.642,223.073,107.869,223.073,107.869Z" transform="translate(-168.53 -105.225)" fill="#a36538"/><path d="M229.815,112.808c1.654,2.718,14.122,2.6,13.058-3.959-.886,3.722-3.309-2.068-8.981-2.954C232.3,105.658,228.515,110.68,229.815,112.808Z" transform="translate(-181.594 -105.495)" fill="#a36538"/><g transform="translate(56.118 11.063)"><path d="M246.34,124c.709,1.654.768,3.191-1.477,3.25s-1.3-2.777-1.3-2.777A22.3,22.3,0,0,1,246.34,124Z" transform="translate(-243.366 -123.97)" fill="url(#n)"/><path d="M248.116,127.744a.28.28,0,0,1-.532-.177c.059-.118.236-.236.355-.177C248.116,127.389,248.176,127.566,248.116,127.744Z" transform="translate(-245.083 -125.35)" fill="#643619"/><path d="M245.788,123.979c-2.482.236-2.659.768-1.477.65C245.965,124.452,247.5,123.8,245.788,123.979Z" transform="translate(-243.463 -123.949)" fill="#994d1d"/></g><g transform="translate(55.739 18.716)"><path d="M242.769,136.9a1.05,1.05,0,0,0,.236.591,1.1,1.1,0,0,0,.473.414,1.811,1.811,0,0,0,1.241-.059,1.036,1.036,0,0,0-.3.236.84.84,0,0,1-.355.118,1.687,1.687,0,0,1-.768,0,1.159,1.159,0,0,1-.532-.532A1.681,1.681,0,0,1,242.769,136.9Z" transform="translate(-242.725 -136.9)" fill="#994d1d"/></g><path d="M245.75,212.4a38.827,38.827,0,0,1-.414,3.959l-.236,4.018.709.177.945-3.6,2.186,2.6,2.186,3.072.709-.355-2.009-3.841,2.777,3.309.3-.3-1.95-3.545,2.423,2.127.3-.473-1.832-2.3,1.241,1.182.118-.414-2.659-2.836-3.013-3.072Z" transform="translate(-187.957 -148.952)" fill="#fbca8e"/></g><g transform="translate(171.999 53.296)"><g transform="translate(18.697 31.57)"><path d="M324.4,155.924c1.064-1.418,2.9-.768,4.254.059C332.138,158.11,343.246,174,343.246,174l-4.668,2.836s-12.113-11.522-13.826-13.058C323.216,162.3,322.8,158.11,324.4,155.924Z" transform="translate(-323.005 -154.051)" fill="#fac37d"/><path d="M330.163,170.093c-2.009-1.95-5.318-6.027-5.909-6.5-1.713-1.536-2.127-6.145-.414-8.567a4.575,4.575,0,0,1,4.668-1.536c2.541,1.064,6.618,7.622,8.449,10.872A56.042,56.042,0,0,1,330.163,170.093Z" transform="translate(-322.744 -153.331)" fill="#009ef0"/><g transform="translate(15.158 5.595)"><path d="M376.1,170.363c.236-.177,1.891-4.55,1.891-4.55l3.131-2.777.709.059L380,166.522l2.541-1.6,3.782-2.127.473.65-4.018,2.954,4.018-2.3.118.355-3.368,2.836,3.072-2.541.059.591-2.659,2.836,2.482-2.186v.65l-2.541,2.718-6.618,2.659Z" transform="translate(-359.732 -162.8)" fill="#fac37d"/><path d="M348.459,183.354c-.355-1.773.886-4.136,3.013-5.2L367.13,172.6l1.3,1.891-12.585,8.627C355.9,183.117,348.99,186.013,348.459,183.354Z" transform="translate(-348.398 -166.81)" fill="#fac37d"/></g></g><path d="M291.1,314.635c0,2.245,11.344,3.959,25.289,3.9s25.289-1.891,25.23-4.136c0-2.245-11.345-3.959-25.289-3.9S291.041,312.39,291.1,314.635Z" transform="translate(-291.1 -186.064)" fill="#e2e2e8"/><path d="M344.852,310.512s-7.5-3.191-9.276-3.959c-1.773-.827-4.491-1.536-5.377-.709s-.709,3.25-.709,3.25,7.917,3.545,10.517,3.782c1.654.177,5.259-1,5.259-1Z" transform="translate(-306.801 -184.009)" fill="#00244c"/><path d="M336.049,203.918l-2.009,60.5-4.609-.886L327.6,203.8C328.545,203.859,335.4,203.918,336.049,203.918Z" transform="translate(-306.033 -142.41)" fill="#004792"/><path d="M335.436,301.584v3.072c0,1.418-6.322.059-6.322.059L328.7,301.7C328.759,301.643,336.263,301.17,335.436,301.584Z" transform="translate(-306.483 -182.348)" fill="#00a2ee"/><path d="M332.121,315.534s-7.386-4.077-9.1-5.081c-1.773-1-4.431-2.068-5.377-1.182-1,.886-.945,3.663-.945,3.663s7.74,4.55,10.4,4.963c1.654.3,5.377-.827,5.377-.827Z" transform="translate(-301.573 -185.426)" fill="#00244c"/><path d="M325.454,206.1l-4.491,60.209-4.609-.945L313.4,207.044C314.4,207.1,324.8,206.039,325.454,206.1Z" transform="translate(-300.224 -143.349)" fill="#007ac3"/><path d="M322.895,305.163s0,1.832-.059,3.427-6.381-.059-6.381-.059l-.355-3.368C316.1,305.1,323.722,304.75,322.895,305.163Z" transform="translate(-301.328 -183.8)" fill="#00a2ee"/><path d="M317.672,151.1a10.174,10.174,0,0,1,9.217,7.208c1.832,5.318,4.018,27.239,3.6,31.257a30.8,30.8,0,0,1-21.094,0c1.832-19.676.886-24.107,1-31.847C310.464,152.691,315.959,150.978,317.672,151.1Z" transform="translate(-298.587 -120.844)" fill="#00d2ff"/><path d="M325.209,150.459v2.068a2.866,2.866,0,0,1-2.186.945,3.338,3.338,0,0,1-2.3-.709L320.6,150.4Z" transform="translate(-303.169 -120.562)" fill="#eeab67"/><g transform="translate(5.2 32.66)"><path d="M310.054,160.463c1.241.236,1.359,1.654,1.241,2.777-.355,2.954-5.968,15.6-5.968,15.6l-4.727-2.9s3.959-11.345,4.432-12.881C305.5,161.586,308.1,160.109,310.054,160.463Z" transform="translate(-300.186 -157.317)" fill="#fac37d"/><g transform="translate(0.231 17.798)"><path d="M309.414,221.8a40.37,40.37,0,0,0,3.25,2.659l1.477,3.25-.236.532-2.363-2.363.65,2.482.768,3.6-.65.236-1.418-4.018.886,3.841h-.355l-1.477-3.427,1.3,3.132-.473-.118-1.654-2.9,1.123,2.6-.532-.177-1.6-2.777-.414-6.2Z" transform="translate(-303.322 -200.232)" fill="#fac37d"/><path d="M301.833,185.3a4.313,4.313,0,0,1,3.6,3.663l2.3,19.617-2.363,1.3s-2.364-9.808-4.254-17.726C299.942,187.131,299.883,185.24,301.833,185.3Z" transform="translate(-300.291 -185.298)" fill="#fac37d"/></g><path d="M309.59,155.6c-2.482-1.3-4.845.473-6.322,3.781a100.583,100.583,0,0,0-3.368,9.631l7.5,4.018s3.191-7.622,4.018-9.749S312.131,156.9,309.59,155.6Z" transform="translate(-299.9 -155.175)" fill="#009ef0"/></g><g transform="translate(5.613)"><path d="M322.462,114.081c-2.954-.3-6.854-.591-9.217-.118-2.363.414-3.191,6.618-4.372,11.935-2.068,2.3-7.681-2.836-6.559-9.986-.473,1.241-1.123,1.3-1.123,1.3s-1.241-2.363,1.418-4.786a7.657,7.657,0,0,1-2.009.886,3.524,3.524,0,0,1,2.541-1.832c0-2.954.236-3.9,1.182-4.845a9.4,9.4,0,0,1,0,2.3s1.6-5.081,7.977-4.313c6.677,1.241,11.4-.65,12.172-2.3-.3,3.6-1.832,4.845-1.832,4.845s4.668-2.245,4.491-7.268c1.95,8.331-.414,9.986-.414,9.986s2.482-1.95,3.013-3.309c.65,3.545-3.25,6.322-4.136,6.854a8.593,8.593,0,0,0,2.6-.945S327.957,114.553,322.462,114.081Z" transform="translate(-300.6 -99.9)" fill="#b06523"/><path d="M327.029,126.031c-.3,6.618.236,8.863-.945,10.754-1.064,1.773-4.2,4.136-11.049,2.068-3.309-1-4.136-5.318-4.136-5.318a2.567,2.567,0,0,1-1.536.177,1.873,1.873,0,0,1-1.477-2.127c.236-1.773,1.064-2.245,1.713-2.363a1.9,1.9,0,0,1,1.95.886,37.291,37.291,0,0,1,.473-4.372c.355-1.832.709-4.313,7.74-3.959,2.186.118,5.14.059,6.263.65S327.147,124.258,327.029,126.031Z" transform="translate(-303.572 -108.837)" fill="#fac37d"/><g transform="translate(18.789 20.562)"><path d="M332.4,135a2.834,2.834,0,0,1,1-.3,1.547,1.547,0,0,1,1,.3.6.6,0,0,1,.177.532.307.307,0,0,1-.118.236l-.177.177a2.571,2.571,0,0,1-.886.473,2.65,2.65,0,0,0,.768-.591.573.573,0,0,0,.118-.768,1.085,1.085,0,0,0-.886-.3A6.178,6.178,0,0,1,332.4,135Z" transform="translate(-332.4 -134.7)" fill="#a56052"/></g><g transform="translate(13.434 25.112)"><path d="M323.374,142.4a1.217,1.217,0,0,0,.414,1,2.465,2.465,0,0,0,.945.532,6.781,6.781,0,0,0,1.123.059c.355-.059.768-.118,1.123-.177-.177.059-.355.177-.532.236s-.355.118-.591.177a3.959,3.959,0,0,1-1.182,0,1.908,1.908,0,0,1-1-.591A1.746,1.746,0,0,1,323.374,142.4Z" transform="translate(-323.336 -142.4)" fill="#a56052"/></g><g transform="translate(14.224 16.696)"><path d="M328.195,128.4c.177.768.768,3.132-1.418,3.486-2.245.355-1.891-2.423-1.891-2.423A27.7,27.7,0,0,1,328.195,128.4Z" transform="translate(-324.752 -128.256)" fill="url(#o)"/><path d="M327.643,128.182c-2.541.355-3.9,1.477-2.245,1.359C326.994,129.423,329.3,127.946,327.643,128.182Z" transform="translate(-324.673 -128.157)" fill="#b06523"/><path d="M328.855,133.764c-.355-.886-1.3-.827-1.654.118" transform="translate(-325.707 -130.193)" fill="none" stroke="#4b2b19" stroke-miterlimit="10" stroke-width="0.523"/></g><g transform="translate(20.494 16.659)"><path d="M335.412,128.3c-.118.65-.532,2.9,1.241,3.132,1.773.3,1.477-2.541,1.477-2.541S336.239,128.477,335.412,128.3Z" transform="translate(-335.285 -128.179)" fill="url(#p)"/><path d="M335.89,128.1c1.95.059,3.25,1.123,1.477.945C335.654,128.866,334.885,128.039,335.89,128.1Z" transform="translate(-335.349 -128.095)" fill="#b06523"/><path d="M337.5,132.942c-.473-1.064-1.6-.709-1.6.118" transform="translate(-335.537 -129.808)" fill="none" stroke="#4b2b19" stroke-miterlimit="10" stroke-width="0.523"/></g><path d="M313.683,132.8c-.709,2.009-.118,4.2.827,4.963C315.279,135.754,313.683,132.8,313.683,132.8Z" transform="translate(-305.825 -113.361)" fill="#b06523"/></g><path d="M315.2,122.457a8.23,8.23,0,0,1,7.149-.118c4.254,1.891,7.563,1.3,7.445-1.064S318.273,118.558,315.2,122.457Z" transform="translate(-300.96 -107.922)" fill="#b06523"/></g><g transform="translate(135.307 28.42)"><path d="M259.961,57.8h-29.07A1.867,1.867,0,0,0,229,59.691V77.417a1.867,1.867,0,0,0,1.891,1.891h29.07a1.867,1.867,0,0,0,1.891-1.891V59.691A1.867,1.867,0,0,0,259.961,57.8Z" transform="translate(-229 -57.8)" fill="#00a6ff"/><path d="M253.3,93.9l.65,4.254a.391.391,0,0,0,.709.177l3.722-4.431Z" transform="translate(-238.942 -72.57)" fill="#00a6ff"/><path d="M255.181,66.2a3.746,3.746,0,0,0-3.25,1.832,3.675,3.675,0,0,0-3.25-1.832,3.808,3.808,0,0,0-3.782,3.782c0,4.845,6.972,7.8,6.972,7.8s6.972-3.545,6.972-7.8A3.6,3.6,0,0,0,255.181,66.2Z" transform="translate(-235.505 -61.237)" fill="#fff"/></g><g transform="translate(66.058 34.093)"><path d="M133.071,67.4H113.1a1.311,1.311,0,0,0-1.3,1.3V80.872a1.311,1.311,0,0,0,1.3,1.3h19.971a1.311,1.311,0,0,0,1.3-1.3V68.7A1.274,1.274,0,0,0,133.071,67.4Z" transform="translate(-111.8 -67.4)" fill="#00a6ff"/><path d="M128.6,92.159l.473,2.9c.059.236.355.355.473.118l2.541-3.072Z" transform="translate(-118.674 -77.506)" fill="#00a6ff"/><path d="M129.79,73.2a2.741,2.741,0,0,0-2.245,1.241A2.618,2.618,0,0,0,122.7,75.8c0,3.309,4.786,5.377,4.786,5.377s4.786-2.423,4.786-5.377A2.42,2.42,0,0,0,129.79,73.2Z" transform="translate(-116.26 -69.773)" fill="#fff"/></g><g transform="translate(175.781 9.454)"><path d="M305.536,25.7h-7.563a.466.466,0,0,0-.473.473v4.609a.466.466,0,0,0,.473.473h7.563a.466.466,0,0,0,.473-.473V26.173A.466.466,0,0,0,305.536,25.7Z" transform="translate(-297.5 -25.7)" fill="#00a6ff"/><path d="M303.8,35.1l.177,1.123c0,.118.118.118.177.059L305.1,35.1Z" transform="translate(-300.078 -29.546)" fill="#00a6ff"/><path d="M304.259,27.9a.96.96,0,0,1-1.654,0,1,1,0,0,0-1,1c0,1.241,1.832,2.068,1.832,2.068s1.832-.945,1.832-2.068A1.035,1.035,0,0,0,304.259,27.9Z" transform="translate(-299.178 -26.6)" fill="#fff"/></g><g transform="translate(201.011 37.047)"><path d="M360.348,72.4H341.441a1.248,1.248,0,0,0-1.241,1.241V85.163a1.248,1.248,0,0,0,1.241,1.241h18.908a1.248,1.248,0,0,0,1.241-1.241V73.582A1.237,1.237,0,0,0,360.348,72.4Z" transform="translate(-340.2 -72.4)" fill="#00a6ff"/><path d="M356,95.9l.414,2.777a.268.268,0,0,0,.473.118l2.423-2.9Z" transform="translate(-346.664 -82.015)" fill="#00a6ff"/><g transform="translate(6.44 1.732)"><path d="M356.19,80.217a2.558,2.558,0,0,1,.886-1.713,3.378,3.378,0,0,0,.827-1.654c0-.473-.177-1.123.3-1.418.532-.3,1.418.059,1.536,1.182.059,1.123-.059,1.477-.236,1.713s0,.236.177.236h1.95a.885.885,0,0,1,.886.827.965.965,0,0,1-.236.65.987.987,0,0,1,.355.827.687.687,0,0,1-.473.709.954.954,0,0,1-.473,1.182.928.928,0,0,1-.886,1.123h-3.072c-.886,0-1.477-.355-1.477-.827A22.489,22.489,0,0,1,356.19,80.217Z" transform="translate(-353.176 -75.332)" fill="#fff"/><path d="M353.168,87.222h-1.95a.127.127,0,0,1-.118-.118V82.318a.127.127,0,0,1,.118-.118h1.95a.254.254,0,0,1,.236.236v4.55C353.464,87.1,353.345,87.222,353.168,87.222Z" transform="translate(-351.1 -78.142)" fill="#fff"/></g></g><g transform="translate(110.137 3.486)"><path d="M201.408,15.6H187.286a.87.87,0,0,0-.886.886v8.627a.87.87,0,0,0,.886.886h14.122a.87.87,0,0,0,.886-.886V16.486A.909.909,0,0,0,201.408,15.6Z" transform="translate(-186.4 -15.6)" fill="#00a6ff"/><path d="M198.1,33.1l.3,2.068a.206.206,0,0,0,.355.118l1.832-2.186Z" transform="translate(-191.187 -22.76)" fill="#00a6ff"/><g transform="translate(4.786 1.339)"><path d="M198.118,21.491a1.828,1.828,0,0,1,.65-1.241,2.206,2.206,0,0,0,.591-1.241c0-.355-.177-.827.236-1.064s1.064.059,1.123.886a1.967,1.967,0,0,1-.177,1.3c-.118.177,0,.177.118.177h1.418a.637.637,0,0,1,.65.591.708.708,0,0,1-.177.473.742.742,0,0,1,.236.591.481.481,0,0,1-.354.532.7.7,0,0,1-.355.886.667.667,0,0,1-.65.827h-2.3c-.65,0-1.123-.236-1.123-.591A12.846,12.846,0,0,0,198.118,21.491Z" transform="translate(-195.932 -17.867)" fill="#fff"/><path d="M195.977,26.682h-1.359a.127.127,0,0,1-.118-.118V23.018a.127.127,0,0,1,.118-.118h1.359a.254.254,0,0,1,.236.236v3.25A.27.27,0,0,1,195.977,26.682Z" transform="translate(-194.5 -19.926)" fill="#fff"/></g></g></g></g></svg>