<svg xmlns="http://www.w3.org/2000/svg" width="42" height="42" viewBox="0 0 42 42"><rect width="42" height="42" rx="3" fill="#c61d26"/><g transform="translate(10.5 8.722)"><g transform="translate(0)"><path d="M58.436,0C51.626,0,48,4.364,48,9.122c0,2.207,1.233,4.959,3.207,5.832.3.135.463.078.53-.2.059-.211.318-1.228.444-1.708a.439.439,0,0,0-.106-.432A5.659,5.659,0,0,1,50.9,9.18c0-3.319,2.639-6.541,7.128-6.541,3.883,0,6.6,2.522,6.6,6.13,0,4.077-2.157,6.9-4.96,6.9a2.221,2.221,0,0,1-2.34-2.724c.443-1.794,1.311-3.723,1.311-5.016a1.927,1.927,0,0,0-1.994-2.12c-1.579,0-2.861,1.564-2.861,3.664a5.223,5.223,0,0,0,.472,2.235s-1.562,6.311-1.853,7.49A16.76,16.76,0,0,0,52.52,24.7a.164.164,0,0,0,.3.076,19.566,19.566,0,0,0,2.572-4.844c.193-.71.983-3.587.983-3.587a4.293,4.293,0,0,0,3.622,1.727c4.758,0,8.2-4.182,8.2-9.372C68.174,3.723,63.916,0,58.436,0Z" transform="translate(-48.004)" fill="#fff"/></g></g></svg>