<svg xmlns="http://www.w3.org/2000/svg" width="45.398" height="41.249" viewBox="0 0 45.398 41.249"><g opacity="0.5"><g transform="translate(2.66 4.009)"><path d="M38.069,68.5H31.33a1.33,1.33,0,1,0,0,2.66h6.739a1.33,1.33,0,1,0,0-2.66Z" transform="translate(-30 -68.5)" fill="#d65b9e"/></g><g transform="translate(2.66 14.649)"><path d="M38.069,188.5H31.33a1.33,1.33,0,0,0,0,2.66h6.739a1.33,1.33,0,0,0,0-2.66Z" transform="translate(-30 -188.5)" fill="#d65b9e"/></g><g transform="translate(0 9.329)"><path d="M8.069,128.5H1.33a1.33,1.33,0,0,0,0,2.66H8.069a1.33,1.33,0,0,0,0-2.66Z" transform="translate(0 -128.5)" fill="#d65b9e"/></g><g transform="translate(17.379 7.997)"><path d="M221.359,121.459H213.29v-5.32a2.664,2.664,0,0,0-4.542-1.88L198.109,124.9a2.659,2.659,0,0,0,0,3.761l6.1,6.1-7.429,7.429a2.66,2.66,0,0,0,3.761,3.761l9.31-9.31a2.659,2.659,0,0,0,0-3.761l-6.1-6.1,4.219-4.219v1.559a2.66,2.66,0,0,0,2.66,2.66h10.729a2.66,2.66,0,1,0,0-5.32Z" transform="translate(-196 -113.477)" fill="#d65b9e"/></g><g transform="translate(13.389 2.014)"><path d="M162.449,46.453a2.661,2.661,0,0,0-3.356.333L151.778,54.1a2.66,2.66,0,1,0,3.762,3.761l5.773-5.773,1.945,1.4,2.6-2.6a5.289,5.289,0,0,1,1.508-1.035Z" transform="translate(-150.999 -46.006)" fill="#d65b9e"/></g><g transform="translate(1.419 22.66)"><path d="M32.189,281.25a5.272,5.272,0,0,1-1.361-2.4L16.779,292.9a2.66,2.66,0,0,0,3.761,3.761l13.529-13.529Z" transform="translate(-16 -278.85)" fill="#d65b9e"/></g><g transform="translate(32.16 0)"><g transform="translate(0)"><ellipse cx="3.845" cy="4.02" rx="3.845" ry="4.02" fill="#d65b9e"/></g></g></g></svg>