<svg xmlns="http://www.w3.org/2000/svg" width="10.5" height="14" viewBox="0 0 10.5 14"><g transform="translate(74.493) rotate(90)"><g transform="translate(7.875 63.993)"><path d="M293.983,68.928l-5.25-4.812a.438.438,0,0,0-.733.323v9.625a.437.437,0,0,0,.733.322l5.25-4.812a.438.438,0,0,0,0-.645Z" transform="translate(-288 -64.001)" fill="#dfeaf6"/></g><g transform="translate(0 63.993)"><path d="M5.863,64.03a.437.437,0,0,0-.472.078L.142,68.92a.439.439,0,0,0,0,.646l5.25,4.812a.438.438,0,0,0,.733-.323V64.431A.438.438,0,0,0,5.863,64.03Z" transform="translate(0 -63.993)" fill="#dfeaf6"/></g></g></svg>