<svg xmlns="http://www.w3.org/2000/svg" width="77.063" height="71.558" viewBox="0 0 77.063 71.558"><g transform="translate(-3.375 -3.373)"><path d="M69.869,6.433a2.752,2.752,0,0,1,0,3.9L31.34,48.86a2.752,2.752,0,0,1-3.9,0L10.93,32.347a2.756,2.756,0,0,1,3.9-3.9L29.392,43.018,65.974,6.431a2.752,2.752,0,0,1,3.9,0Z" transform="translate(9.76 3.254)" fill="#187b1e" fill-rule="evenodd"/><path d="M39.153,8.883A30.273,30.273,0,1,0,69.425,39.156a2.752,2.752,0,1,1,5.5,0A35.777,35.777,0,1,1,57.04,8.166a2.752,2.752,0,1,1-2.752,4.76A30.119,30.119,0,0,0,39.153,8.883Z" transform="translate(0 0)" fill="#187b1e" fill-rule="evenodd"/></g></svg>