<svg xmlns="http://www.w3.org/2000/svg" width="42" height="42" viewBox="0 0 42 42"><rect width="42" height="42" rx="3" fill="#50abf1"/><g transform="translate(8.889 11.889)"><g transform="translate(0 0)"><path d="M23.222,50.234a9.925,9.925,0,0,1-2.743.752,4.734,4.734,0,0,0,2.094-2.631,9.514,9.514,0,0,1-3.019,1.152,4.76,4.76,0,0,0-8.235,3.255,4.9,4.9,0,0,0,.11,1.086,13.475,13.475,0,0,1-9.813-4.98A4.762,4.762,0,0,0,3.08,55.231a4.7,4.7,0,0,1-2.151-.586V54.7a4.783,4.783,0,0,0,3.814,4.678,4.751,4.751,0,0,1-1.248.157,4.21,4.21,0,0,1-.9-.081,4.806,4.806,0,0,0,4.449,3.316,9.566,9.566,0,0,1-5.9,2.031A8.919,8.919,0,0,1,0,64.732a13.4,13.4,0,0,0,7.3,2.136,13.457,13.457,0,0,0,13.55-13.547c0-.21-.007-.414-.017-.615A9.5,9.5,0,0,0,23.222,50.234Z" transform="translate(0 -48)" fill="#fff"/></g></g></svg>