<svg xmlns="http://www.w3.org/2000/svg" width="42" height="42" viewBox="0 0 42 42"><rect width="42" height="42" rx="3" fill="#19bf39"/><path d="M10.556,0h0a10.549,10.549,0,0,0-8.55,16.742L.694,20.664l4.057-1.3A10.556,10.556,0,1,0,10.556,0ZM16.7,14.905a2.979,2.979,0,0,1-2.072,1.489c-.552.117-1.267.211-3.694-.795a13.223,13.223,0,0,1-5.256-4.644,6.028,6.028,0,0,1-1.253-3.18A3.369,3.369,0,0,1,5.5,5.206a1.534,1.534,0,0,1,1.08-.379c.131,0,.248.006.354.012.31.013.465.032.67.521.254.613.875,2.128.95,2.284a.633.633,0,0,1,.045.571,1.824,1.824,0,0,1-.342.484c-.155.179-.3.317-.459.51-.143.168-.3.347-.125.657a9.369,9.369,0,0,0,1.713,2.128,7.761,7.761,0,0,0,2.475,1.526.667.667,0,0,0,.744-.117,12.772,12.772,0,0,0,.824-1.092.589.589,0,0,1,.757-.229c.285.1,1.794.844,2.1,1s.515.229.59.36a2.628,2.628,0,0,1-.183,1.465Z" transform="translate(10.281 10.833)" fill="#fff"/></svg>